<svg width="321" height="156" viewBox="0 0 321 156" fill="none" xmlns="http://www.w3.org/2000/svg">
<g clip-path="url(#clip0_374_5235)">
<path d="M67.7775 27.3755H1.64111V102.631H67.7775V27.3755Z" fill="black"/>
<path d="M67.7775 102.631C67.7775 102.631 67.7736 102.508 67.7711 102.273C67.7697 102.034 67.7677 101.686 67.7648 101.227C67.7619 100.304 67.7575 98.9408 67.7521 97.1655C67.7453 93.6124 67.736 88.4134 67.7233 81.811C67.7101 68.6164 67.6911 49.8164 67.6686 27.3761L67.7775 27.4846C48.3018 27.489 25.6731 27.4939 1.64795 27.4988H1.64109L1.76414 27.3761C1.7573 55.1215 1.75047 80.9941 1.7451 102.631L1.64109 102.527C21.5376 102.549 38.0589 102.567 49.6108 102.581C55.3912 102.592 59.9275 102.602 63.0229 102.607C64.5692 102.613 65.7547 102.617 66.5578 102.619C67.3586 102.623 67.7775 102.631 67.7775 102.631C67.7775 102.631 67.3742 102.639 66.5803 102.642C65.7815 102.645 64.6029 102.649 63.0654 102.654C59.9753 102.66 55.4473 102.669 49.6767 102.681C38.1092 102.694 21.5655 102.712 1.6416 102.734H1.5376V102.63C1.53223 80.9937 1.52539 55.1205 1.51855 27.3756V27.2529H1.6416H1.64842C25.6736 27.2583 48.3018 27.2632 67.778 27.267H67.8869V27.3756C67.8644 49.8446 67.8454 68.669 67.8322 81.8806C67.82 88.4728 67.8102 93.6635 67.8034 97.2108C67.798 98.9769 67.7936 100.333 67.7907 101.251C67.7882 101.705 67.7858 102.05 67.7843 102.285C67.7814 102.516 67.7775 102.631 67.7775 102.631Z" fill="#263238"/>
<path d="M62.092 65.8018C62.0705 65.8465 61.3596 65.4362 59.9657 64.9961C58.5825 64.5687 56.4484 64.1554 53.8665 64.5448C52.5863 64.7493 51.1987 65.1358 49.8439 65.8339C48.4797 66.5154 47.18 67.5265 45.8886 68.6699C44.5918 69.811 43.3043 71.1068 41.8191 72.3044C40.3338 73.4829 38.6298 74.5981 36.6251 75.1073C35.6301 75.3629 34.5881 75.4291 33.5926 75.2894C32.5946 75.1536 31.6523 74.8284 30.7827 74.4244C29.0407 73.606 27.551 72.5302 26.0755 71.6336C24.6108 70.7189 23.1378 69.9931 21.6481 69.6547C20.1678 69.296 18.7299 69.2229 17.437 69.333C14.8342 69.5593 12.865 70.4784 11.6239 71.2198C10.3765 71.9797 9.78815 72.5517 9.75495 72.5117C9.74421 72.5005 9.8897 72.3584 10.1773 72.0975C10.46 71.8322 10.9116 71.4744 11.5307 71.0708C12.7601 70.2739 14.7463 69.2887 17.4072 69.0151C18.7294 68.8822 20.2068 68.9367 21.736 69.2911C23.274 69.6226 24.8115 70.3659 26.2928 71.2787C27.7878 72.1758 29.278 73.2371 30.9688 74.0232C32.642 74.8269 34.6106 75.1842 36.5147 74.6702C38.4194 74.1883 40.0814 73.1124 41.5422 71.9597C43.0035 70.789 44.2969 69.5014 45.6132 68.3579C46.9242 67.212 48.261 66.1883 49.6749 65.4999C51.0777 64.796 52.5073 64.4178 53.8206 64.2294C56.4699 63.8716 58.6352 64.3448 60.0204 64.8291C60.72 65.0701 61.2405 65.3169 61.5823 65.4994C61.9245 65.6844 62.0993 65.7881 62.092 65.8018Z" fill="#648EF9"/>
<path d="M25.4679 75.9087H19.8452V91.0699H25.4679V75.9087Z" fill="#648EF9"/>
<path d="M49.3263 75.9087H43.7036V91.0699H49.3263V75.9087Z" fill="#648EF9"/>
<path d="M57.2799 67.0054H51.6572V91.0706H57.2799V67.0054Z" fill="#648EF9"/>
<path d="M18.192 86.2974H12.5693V91.3999H18.192V86.2974Z" fill="#648EF9"/>
<path d="M33.421 82.7554H27.7983V91.0703H33.421V82.7554Z" fill="#648EF9"/>
<path d="M41.3741 80.8462H35.7515V91.0699H41.3741V80.8462Z" fill="#648EF9"/>
<path d="M25.6944 92.8572C25.6944 92.9814 24.3342 93.0826 22.657 93.0826C20.9789 93.0826 19.6191 92.9818 19.6191 92.8572C19.6191 92.7326 20.9789 92.6318 22.657 92.6318C24.3342 92.6323 25.6944 92.7326 25.6944 92.8572Z" fill="#263238"/>
<path d="M18.6978 92.8572C18.6978 92.9814 17.3376 93.0826 15.66 93.0826C13.9819 93.0826 12.6221 92.9818 12.6221 92.8572C12.6221 92.7326 13.9819 92.6318 15.66 92.6318C17.3376 92.6323 18.6978 92.7326 18.6978 92.8572Z" fill="#263238"/>
<path d="M58.3877 92.8572C58.3877 92.9814 56.8502 93.0826 54.9539 93.0826C53.057 93.0826 51.52 92.9818 51.52 92.8572C51.52 92.7326 53.057 92.6318 54.9539 92.6318C56.8497 92.6323 58.3877 92.7326 58.3877 92.8572Z" fill="#263238"/>
<path d="M50.0351 92.8572C50.0351 92.9814 48.4976 93.0826 46.6013 93.0826C44.7045 93.0826 43.1675 92.9818 43.1675 92.8572C43.1675 92.7326 44.7045 92.6318 46.6013 92.6318C48.4976 92.6323 50.0351 92.7326 50.0351 92.8572Z" fill="#263238"/>
<path d="M41.3741 92.8572C41.3741 92.9818 40.0138 93.0831 38.3362 93.0831C36.6586 93.0831 35.2983 92.9818 35.2983 92.8572C35.2983 92.7331 36.6581 92.6318 38.3362 92.6318C40.0133 92.6318 41.3741 92.7331 41.3741 92.8572Z" fill="#263238"/>
<path d="M33.1568 92.8572C33.1568 92.9818 31.7965 93.0831 30.1189 93.0831C28.4413 93.0831 27.0811 92.9818 27.0811 92.8572C27.0811 92.7331 28.4413 92.6318 30.1189 92.6318C31.7965 92.6318 33.1568 92.7331 33.1568 92.8572Z" fill="#263238"/>
<path d="M58.3869 38.3467H12.436V57.3731H58.3869V38.3467Z" fill="#799CD9"/>
<path d="M21.9826 44.3602C21.9826 45.5397 21.0237 46.4962 19.8406 46.4962C18.6576 46.4962 17.6987 45.5402 17.6987 44.3602C17.6987 43.1807 18.6576 42.2246 19.8406 42.2246C21.0237 42.2246 21.9826 43.1807 21.9826 44.3602Z" fill="#263238"/>
<path d="M39.0507 42.8853H24.1245V43.7113H39.0507V42.8853Z" fill="#263238"/>
<path d="M53.1605 44.7627H24.1245V45.5888H53.1605V44.7627Z" fill="black"/>
<path d="M21.9826 50.9266C21.9826 52.1061 21.0237 53.0622 19.8406 53.0622C18.6576 53.0622 17.6987 52.1061 17.6987 50.9266C17.6987 49.7471 18.6576 48.791 19.8406 48.791C21.0237 48.791 21.9826 49.7466 21.9826 50.9266Z" fill="#648EF9"/>
<path d="M31.7465 49.4512H24.1245V50.2773H31.7465V49.4512Z" fill="#648EF9"/>
<path d="M53.1605 51.3286H24.1245V52.1547H53.1605V51.3286Z" fill="black"/>
<path d="M251.831 99.7195L251.353 155.136L291.047 155.477L291.525 100.06L251.831 99.7195Z" fill="black"/>
<path d="M251.345 155.146C251.345 155.146 251.341 155.062 251.34 154.89C251.34 154.712 251.34 154.456 251.34 154.121C251.343 153.434 251.347 152.427 251.353 151.118C251.368 148.479 251.391 144.63 251.419 139.76C251.49 129.986 251.589 116.121 251.707 99.7296L251.708 99.6143L251.824 99.6152C263.815 99.7145 277.3 99.826 291.512 99.9438H291.517L291.644 99.9448L291.643 100.071C291.455 120.821 291.281 140.012 291.141 155.486L291.14 155.589L291.037 155.588C278.974 155.462 269.042 155.359 262.119 155.287C258.673 155.246 255.977 155.214 254.137 155.192C253.226 155.179 252.528 155.169 252.051 155.162C251.581 155.155 251.345 155.146 251.345 155.146C251.345 155.146 251.596 155.141 252.073 155.141C252.554 155.143 253.259 155.145 254.178 155.147C256.024 155.157 258.728 155.171 262.184 155.19C269.092 155.236 279.002 155.302 291.039 155.383L290.935 155.485C291.061 140.011 291.218 120.819 291.388 100.07L291.514 100.198H291.51C277.298 100.072 263.812 99.9526 251.821 99.8465L251.937 99.7325C251.773 116.093 251.634 129.931 251.536 139.686C251.481 144.567 251.437 148.425 251.407 151.07C251.39 152.389 251.376 153.404 251.367 154.096C251.361 154.436 251.357 154.696 251.354 154.877C251.35 155.053 251.345 155.146 251.345 155.146Z" fill="#263238"/>
<path d="M256.886 113.232C256.887 113.104 263.46 113.057 271.566 113.127C279.674 113.196 286.244 113.356 286.243 113.483C286.242 113.611 279.67 113.657 271.562 113.588C263.457 113.519 256.885 113.36 256.886 113.232Z" fill="#263238"/>
<path d="M256.853 117.145C256.854 117.017 263.427 116.97 271.532 117.039C279.64 117.109 286.21 117.269 286.209 117.396C286.208 117.524 279.637 117.571 271.528 117.501C263.423 117.432 256.852 117.272 256.853 117.145Z" fill="#263238"/>
<path d="M256.819 121.058C256.82 120.931 263.393 120.883 271.498 120.953C279.607 121.022 286.177 121.182 286.176 121.309C286.175 121.437 279.603 121.484 271.495 121.415C263.389 121.345 256.818 121.185 256.819 121.058Z" fill="#263238"/>
<path d="M256.785 124.971C256.786 124.843 263.359 124.796 271.465 124.866C279.573 124.935 286.143 125.094 286.142 125.222C286.141 125.35 279.569 125.397 271.461 125.327C263.355 125.258 256.784 125.098 256.785 124.971Z" fill="#263238"/>
<path d="M256.751 128.884C256.752 128.756 263.326 128.709 271.431 128.779C279.539 128.848 286.109 129.008 286.108 129.136C286.107 129.263 279.535 129.31 271.427 129.241C263.322 129.171 256.75 129.011 256.751 128.884Z" fill="#263238"/>
<path d="M267.261 133.427H262.538V148.137H267.261V133.427Z" fill="#656565"/>
<path d="M274.315 136.787H269.591V148.137H274.315V136.787Z" fill="#656565"/>
<path d="M280.845 141.396H276.121V148.137H280.845V141.396Z" fill="#656565"/>
<path d="M2.13525 112.26C2.13525 112.255 2.19287 112.251 2.30565 112.247C2.4365 112.243 2.60102 112.239 2.80609 112.234C3.26943 112.228 3.91345 112.22 4.73028 112.21C6.42596 112.2 8.83741 112.187 11.8074 112.17C17.8041 112.16 26.0491 112.147 35.1563 112.133C43.1098 112.144 50.4048 112.154 56.0215 112.162H56.1451L56.1446 112.259C56.1221 115.226 56.1035 117.65 56.0909 119.352C56.0767 120.179 56.066 120.83 56.0577 121.294C56.0503 121.504 56.0445 121.671 56.0401 121.8C56.0342 121.914 56.0279 121.973 56.022 121.973C56.0157 121.973 56.0098 121.914 56.004 121.8C55.9996 121.671 55.9937 121.503 55.9864 121.294C55.9786 120.83 55.9673 120.179 55.9532 119.352C55.9405 117.65 55.9219 115.226 55.8995 112.259L56.022 112.357C50.4052 112.365 43.1104 112.375 35.1568 112.386C26.0496 112.371 17.8045 112.358 11.8079 112.349C8.83789 112.332 6.42644 112.318 4.73076 112.309C3.91344 112.298 3.26994 112.291 2.80659 112.285C2.60153 112.279 2.43698 112.275 2.30613 112.272C2.19286 112.269 2.13525 112.264 2.13525 112.26Z" fill="#263238"/>
<path d="M1.51792 40.046C1.51792 40.0538 1.41295 40.0621 1.2113 40.0694C0.986223 40.0752 0.693772 40.082 0.328564 40.0913C-0.467278 40.1005 -1.57608 40.1132 -2.94561 40.1292C-5.75156 40.1399 -9.61896 40.1546 -13.9936 40.1716L-13.8677 40.045C-13.8599 40.8677 -13.8521 41.7323 -13.8443 42.6109C-13.8032 47.5913 -13.7959 52.1 -13.8208 55.3635C-13.835 56.9952 -13.8565 58.3159 -13.8877 59.2286C-13.9043 59.6853 -13.9224 60.0392 -13.9419 60.2792C-13.9673 60.5196 -13.9853 60.6443 -13.9936 60.6433C-13.9936 60.6433 -13.9751 58.627 -14.0005 55.3635C-14.0259 52.0767 -14.06 47.5806 -14.0981 42.6129C-14.1054 41.7342 -14.1123 40.8701 -14.1191 40.047L-14.1201 39.9199L-13.9932 39.9204C-9.61799 39.937 -5.75109 39.952 -2.94514 39.9628C-1.57561 39.9788 -0.466801 39.9915 0.329041 40.0007C0.694249 40.01 0.986731 40.0173 1.21181 40.0226C1.41297 40.0299 1.51792 40.0377 1.51792 40.046Z" fill="#263238"/>
<path d="M2.77129 40.046C2.77129 40.7358 2.21029 41.2956 1.51796 41.2956C0.82611 41.2956 0.264648 40.7363 0.264648 40.046C0.264648 39.3557 0.825622 38.7964 1.51796 38.7964C2.21029 38.7964 2.77129 39.3557 2.77129 40.046Z" fill="#263238"/>
<path d="M57.2992 121.974C57.2992 122.664 56.7382 123.223 56.0458 123.223C55.3535 123.223 54.7925 122.664 54.7925 121.974C54.7925 121.283 55.3535 120.724 56.0458 120.724C56.7382 120.724 57.2992 121.284 57.2992 121.974Z" fill="#263238"/>
<path d="M251.795 6.30957H82.2521C79.3289 6.30957 76.96 8.67199 76.96 11.5859V130.982C76.96 133.896 79.3289 136.259 82.2521 136.259H147.322C147.322 136.259 151.461 149.02 138.63 155.623H199.474C199.474 155.623 184.986 150.671 188.712 136.259H251.795C254.718 136.259 257.087 133.896 257.087 130.982V11.5859C257.087 8.6715 254.718 6.30957 251.795 6.30957Z" fill="#656565"/>
<path d="M169.287 123.702C171.594 126.988 167.984 130.587 164.687 128.288C164.579 128.213 164.48 128.114 164.404 128.005C162.104 124.719 165.709 121.125 169.004 123.42C169.113 123.495 169.211 123.593 169.287 123.702Z" fill="#263238"/>
<path d="M254.168 114.416H79.8794V13.2175C79.8794 10.6102 81.9994 8.49707 84.6139 8.49707H249.434C252.049 8.49707 254.168 10.6107 254.168 13.2175V114.416Z" fill="black"/>
<path d="M254.168 17.2978H79.8794V12.9527C79.8794 10.492 81.8802 8.49658 84.3488 8.49658H250.499C252.526 8.49658 254.169 10.1347 254.169 12.1553L254.168 17.2978Z" fill="black"/>
<path d="M86.6536 13.0817C86.6536 13.7559 86.1053 14.3026 85.4291 14.3026C84.7529 14.3026 84.2046 13.7559 84.2046 13.0817C84.2046 12.4075 84.7529 11.8608 85.4291 11.8608C86.1053 11.8608 86.6536 12.4075 86.6536 13.0817Z" fill="#799CD9"/>
<path d="M90.3035 13.0817C90.3035 13.7559 89.7552 14.3026 89.079 14.3026C88.4028 14.3026 87.8545 13.7559 87.8545 13.0817C87.8545 12.4075 88.4028 11.8608 89.079 11.8608C89.7552 11.8608 90.3035 12.4075 90.3035 13.0817Z" fill="#799CD9"/>
<path d="M93.7742 13.0817C93.7742 13.7559 93.2259 14.3026 92.5497 14.3026C91.8735 14.3026 91.3252 13.7559 91.3252 13.0817C91.3252 12.4075 91.8735 11.8608 92.5497 11.8608C93.2264 11.8613 93.7742 12.4075 93.7742 13.0817Z" fill="#799CD9"/>
<path d="M221.484 136.275C221.484 136.331 197.357 136.376 167.603 136.376C137.839 136.376 113.718 136.331 113.718 136.275C113.718 136.219 137.839 136.174 167.603 136.174C197.357 136.174 221.484 136.219 221.484 136.275Z" fill="#263238"/>
<path d="M136.03 77.2944L87.4268 77.4341L87.5225 110.705L127.815 110.59L133.279 110.574L136.126 110.566L136.03 77.2944Z" fill="black"/>
<path d="M91.1667 107.137C91.1081 107.137 91.0441 101.493 91.0241 94.5323C91.0041 87.5692 91.0354 81.9263 91.0939 81.9258C91.1525 81.9258 91.2165 87.5682 91.2365 94.5314C91.2565 101.493 91.2253 107.137 91.1667 107.137Z" fill="#263238"/>
<path d="M133.335 103.544C133.335 103.602 123.857 103.677 112.166 103.71C100.471 103.744 90.9941 103.724 90.9941 103.665C90.9941 103.607 100.471 103.532 112.165 103.499C123.856 103.465 133.335 103.485 133.335 103.544Z" fill="black"/>
<path d="M133.325 99.8451C133.325 99.9036 123.846 99.978 112.155 100.012C100.461 100.045 90.9834 100.025 90.9834 99.9663C90.9834 99.9079 100.46 99.8335 112.155 99.7999C123.845 99.7663 133.324 99.7867 133.325 99.8451Z" fill="black"/>
<path d="M133.314 96.1461C133.314 96.2045 123.835 96.2794 112.144 96.313C100.45 96.3466 90.9727 96.3262 90.9727 96.2678C90.9727 96.2093 100.45 96.1349 112.144 96.1013C123.835 96.0677 133.313 96.0876 133.314 96.1461Z" fill="black"/>
<path d="M133.303 92.4475C133.303 92.5059 123.824 92.5808 112.134 92.6139C100.439 92.6475 90.9619 92.6271 90.9619 92.5687C90.9619 92.5103 100.439 92.4358 112.133 92.4022C123.824 92.3691 133.303 92.3891 133.303 92.4475Z" fill="black"/>
<path d="M133.292 88.7486C133.292 88.807 123.814 88.8815 112.123 88.9156C100.429 88.9491 90.9512 88.9287 90.9512 88.8703C90.9512 88.8119 100.428 88.7374 112.123 88.7038C123.813 88.6702 133.292 88.6902 133.292 88.7486Z" fill="black"/>
<path d="M133.282 85.05C133.282 85.1084 123.803 85.1829 112.112 85.2165C100.418 85.2501 90.9404 85.2301 90.9404 85.1712C90.9404 85.1128 100.417 85.0383 112.112 85.0047C123.802 84.9716 133.282 84.9916 133.282 85.05Z" fill="black"/>
<path d="M133.271 81.3513C133.271 81.4097 123.792 81.4842 112.102 81.5178C100.407 81.5513 90.9297 81.5309 90.9297 81.4725C90.9297 81.4141 100.407 81.3396 112.101 81.306C123.792 81.2729 133.271 81.2929 133.271 81.3513Z" fill="black"/>
<path d="M96.8919 101.354L93.856 101.363L93.8726 107.127L96.9085 107.119L96.8919 101.354Z" fill="#648EF9"/>
<path d="M118.946 101.289L115.91 101.297L115.926 107.062L118.962 107.053L118.946 101.289Z" fill="#648EF9"/>
<path d="M102.832 97.1L99.7959 97.1089L99.8247 107.112L102.861 107.103L102.832 97.1Z" fill="#648EF9"/>
<path d="M113.952 94.4638L110.916 94.4727L110.952 107.078L113.988 107.069L113.952 94.4638Z" fill="#648EF9"/>
<path d="M108.435 86.8227L105.399 86.8315L105.457 107.095L108.493 107.087L108.435 86.8227Z" fill="#648EF9"/>
<path d="M124.795 90.5214L121.759 90.5303L121.807 107.046L124.843 107.037L124.795 90.5214Z" fill="#648EF9"/>
<path d="M128.457 107.03C128.457 107.088 120.126 107.159 109.85 107.189C99.5707 107.218 91.2402 107.195 91.2402 107.136C91.2402 107.078 99.5702 107.006 109.849 106.977C120.125 106.948 128.457 106.971 128.457 107.03Z" fill="#263238"/>
<path d="M86.9844 25.1846V74.0457H165.656H172.557H192.993V25.1846H86.9844Z" fill="black"/>
<path d="M94.4423 58.9351V60.4777H94.2827V59.0762H93.918V58.9351H94.4423Z" fill="#263238"/>
<path d="M94.8135 59.7066C94.8135 59.2154 95.0722 58.9219 95.4301 58.9219C95.788 58.9219 96.0492 59.2154 96.0492 59.7066C96.0492 60.1983 95.788 60.4908 95.4301 60.4908C95.0722 60.4908 94.8135 60.1978 94.8135 59.7066ZM95.8852 59.7066C95.8852 59.2943 95.6996 59.0674 95.4296 59.0674C95.1601 59.0674 94.9741 59.2943 94.9741 59.7066C94.9741 60.1184 95.1601 60.3453 95.4296 60.3453C95.6996 60.3453 95.8852 60.1184 95.8852 59.7066Z" fill="#263238"/>
<path d="M95.0702 50.7452V50.8864H93.9849V50.7739L94.6279 50.1455C94.8027 49.9736 94.8359 49.8699 94.8359 49.7643C94.8359 49.5856 94.7099 49.4756 94.4736 49.4756C94.292 49.4756 94.1528 49.5306 94.0517 49.6475L93.939 49.5506C94.0576 49.4094 94.2505 49.3301 94.4868 49.3301C94.8007 49.3301 94.9999 49.4888 94.9999 49.7468C94.9999 49.8943 94.9535 50.0267 94.7455 50.2292L94.2197 50.7447L95.0702 50.7452Z" fill="#263238"/>
<path d="M95.2627 50.1148C95.2627 49.6231 95.5215 49.3301 95.8794 49.3301C96.2372 49.3301 96.4984 49.6236 96.4984 50.1148C96.4984 50.606 96.2372 50.899 95.8794 50.899C95.5215 50.8995 95.2627 50.6065 95.2627 50.1148ZM96.3344 50.1148C96.3344 49.7025 96.1489 49.4756 95.8789 49.4756C95.6093 49.4756 95.4233 49.7025 95.4233 50.1148C95.4233 50.5266 95.6093 50.754 95.8789 50.754C96.1489 50.754 96.3344 50.5266 96.3344 50.1148Z" fill="#263238"/>
<path d="M95.037 40.8511C95.037 41.1091 94.8486 41.3073 94.4756 41.3073C94.2524 41.3073 94.0376 41.2303 93.918 41.1086L93.9956 40.9831C94.0947 41.0867 94.2739 41.1612 94.4751 41.1612C94.7314 41.1612 94.873 41.0424 94.873 40.8506C94.873 40.6657 94.7421 40.5444 94.4546 40.5444H94.3442V40.4276L94.7729 39.8921H93.9814V39.751H94.976V39.8634L94.538 40.412C94.871 40.43 95.037 40.6043 95.037 40.8511Z" fill="#263238"/>
<path d="M95.2627 40.523C95.2627 40.0318 95.5215 39.7383 95.8794 39.7383C96.2372 39.7383 96.4984 40.0318 96.4984 40.523C96.4984 41.0147 96.2372 41.3077 95.8794 41.3077C95.5215 41.3072 95.2627 41.0142 95.2627 40.523ZM96.3344 40.523C96.3344 40.1107 96.1489 39.8838 95.8789 39.8838C95.6093 39.8838 95.4233 40.1107 95.4233 40.523C95.4233 40.9348 95.6093 41.1622 95.8789 41.1622C96.1489 41.1617 96.3344 40.9348 96.3344 40.523Z" fill="#263238"/>
<path d="M101.273 64.7681C101.273 64.2769 101.532 63.9834 101.89 63.9834C102.247 63.9834 102.509 64.2769 102.509 64.7681C102.509 65.2593 102.247 65.5523 101.89 65.5523C101.531 65.5523 101.273 65.2598 101.273 64.7681ZM102.345 64.7681C102.345 64.3558 102.159 64.1289 101.889 64.1289C101.62 64.1289 101.434 64.3558 101.434 64.7681C101.434 65.1799 101.62 65.4068 101.889 65.4068C102.159 65.4073 102.345 65.1799 102.345 64.7681Z" fill="#263238"/>
<path d="M112.725 63.9966V65.5392H112.565V64.1378H112.201V63.9966H112.725Z" fill="#263238"/>
<path d="M124.797 65.3985V65.5397H123.711V65.4272L124.354 64.7988C124.529 64.6269 124.562 64.5233 124.562 64.4176C124.562 64.239 124.436 64.1289 124.2 64.1289C124.019 64.1289 123.879 64.1839 123.778 64.3008L123.665 64.2039C123.784 64.0627 123.977 63.9834 124.213 63.9834C124.527 63.9834 124.726 64.1421 124.726 64.4001C124.726 64.5476 124.68 64.68 124.472 64.883L123.946 65.3985H124.797Z" fill="#263238"/>
<path d="M136.206 65.0963C136.206 65.3543 136.018 65.5524 135.645 65.5524C135.421 65.5524 135.207 65.4755 135.087 65.3543L135.165 65.2287C135.264 65.3323 135.443 65.4073 135.645 65.4073C135.901 65.4073 136.042 65.2885 136.042 65.0967C136.042 64.9118 135.912 64.7905 135.624 64.7905H135.514V64.6737L135.943 64.1382H135.152V63.9971H136.147V64.1095L135.709 64.6581C136.041 64.6752 136.206 64.8494 136.206 65.0963Z" fill="#263238"/>
<path d="M147.941 65.1342H147.632V65.5397H147.473V65.1342H146.6V65.0198L147.42 63.9971H147.597L146.805 64.9935H147.477V64.6362H147.631V64.9935H147.941L147.941 65.1342Z" fill="#263238"/>
<path d="M159.12 65.0855C159.12 65.3479 158.936 65.5529 158.559 65.5529C158.335 65.5529 158.123 65.476 158.003 65.3547L158.081 65.2292C158.18 65.3328 158.357 65.4078 158.556 65.4078C158.819 65.4078 158.958 65.2798 158.958 65.0928C158.958 64.8947 158.834 64.7711 158.441 64.7711H158.111L158.191 63.9971H159.038V64.1382H158.331L158.277 64.6299H158.476C158.943 64.6294 159.12 64.8124 159.12 65.0855Z" fill="#263238"/>
<path d="M170.676 65.0787C170.676 65.3674 170.449 65.5523 170.148 65.5523C169.736 65.5523 169.513 65.268 169.513 64.7812C169.513 64.2565 169.801 63.9834 170.221 63.9834C170.36 63.9834 170.49 64.0077 170.588 64.0671L170.523 64.1952C170.444 64.1421 170.338 64.1226 170.223 64.1226C169.89 64.1226 169.675 64.3363 169.675 64.7555C169.675 64.7905 169.677 64.8348 169.682 64.881C169.759 64.7112 169.94 64.6162 170.154 64.6162C170.461 64.6157 170.676 64.7968 170.676 65.0787ZM170.519 65.0831C170.519 64.8805 170.369 64.7501 170.13 64.7501C169.894 64.7501 169.732 64.8956 169.732 65.0874C169.732 65.2573 169.874 65.418 170.142 65.418C170.365 65.4185 170.519 65.288 170.519 65.0831Z" fill="#263238"/>
<path d="M182.049 63.9966V64.109L181.401 65.5397H181.229L181.866 64.1382H181.07V64.4269H180.913V63.9971H182.049V63.9966Z" fill="#263238"/>
<path d="M182.131 59.7808C182.131 59.8635 164.223 59.9307 142.136 59.9307C120.041 59.9307 102.136 59.8635 102.136 59.7808C102.136 59.698 120.041 59.6309 142.136 59.6309C164.223 59.6309 182.131 59.698 182.131 59.7808Z" fill="#263238"/>
<path d="M182.131 50.1397C182.131 50.2224 164.223 50.2896 142.136 50.2896C120.041 50.2896 102.136 50.2224 102.136 50.1397C102.136 50.0569 120.041 49.9897 142.136 49.9897C164.223 49.9897 182.131 50.0569 182.131 50.1397Z" fill="#263238"/>
<path d="M182.131 40.4981C182.131 40.5808 164.223 40.648 142.136 40.648C120.041 40.648 102.136 40.5808 102.136 40.4981C102.136 40.4153 120.041 40.3481 142.136 40.3481C164.223 40.3486 182.131 40.4153 182.131 40.4981Z" fill="#263238"/>
<path d="M102.136 59.64C102.136 59.9229 101.906 60.1521 101.623 60.1521C101.339 60.1521 101.109 59.9229 101.109 59.64C101.109 59.3572 101.339 59.1279 101.623 59.1279C101.906 59.1279 102.136 59.3572 102.136 59.64Z" fill="#648EF9"/>
<path d="M113.637 59.64C113.637 59.9229 113.407 60.1521 113.123 60.1521C112.84 60.1521 112.61 59.9229 112.61 59.64C112.61 59.3572 112.84 59.1279 113.123 59.1279C113.407 59.1279 113.637 59.3572 113.637 59.64Z" fill="#648EF9"/>
<path d="M125.139 59.64C125.139 59.9229 124.909 60.1521 124.625 60.1521C124.342 60.1521 124.112 59.9229 124.112 59.64C124.112 59.3572 124.342 59.1279 124.625 59.1279C124.909 59.1279 125.139 59.3572 125.139 59.64Z" fill="#648EF9"/>
<path d="M136.64 59.64C136.64 59.9229 136.41 60.1521 136.126 60.1521C135.843 60.1521 135.613 59.9229 135.613 59.64C135.613 59.3572 135.843 59.1279 136.126 59.1279C136.41 59.1279 136.64 59.3572 136.64 59.64Z" fill="#648EF9"/>
<path d="M148.142 59.64C148.142 59.9229 147.912 60.1521 147.628 60.1521C147.344 60.1521 147.114 59.9229 147.114 59.64C147.114 59.3572 147.344 59.1279 147.628 59.1279C147.911 59.1279 148.142 59.3572 148.142 59.64Z" fill="#648EF9"/>
<path d="M171.144 59.64C171.144 59.9229 170.914 60.1521 170.63 60.1521C170.347 60.1521 170.117 59.9229 170.117 59.64C170.117 59.3572 170.347 59.1279 170.63 59.1279C170.914 59.1279 171.144 59.3572 171.144 59.64Z" fill="#648EF9"/>
<path d="M159.643 59.64C159.643 59.9229 159.413 60.1521 159.129 60.1521C158.846 60.1521 158.616 59.9229 158.616 59.64C158.616 59.3572 158.846 59.1279 159.129 59.1279C159.413 59.1279 159.643 59.3572 159.643 59.64Z" fill="#648EF9"/>
<path d="M182.645 59.64C182.645 59.9229 182.415 60.1521 182.131 60.1521C181.848 60.1521 181.618 59.9229 181.618 59.64C181.618 59.3572 181.848 59.1279 182.131 59.1279C182.415 59.1279 182.645 59.3572 182.645 59.64Z" fill="#648EF9"/>
<path d="M107.377 59.7812C107.377 59.9672 107.226 60.1176 107.04 60.1176C106.854 60.1176 106.703 59.9672 106.703 59.7812C106.703 59.5952 106.853 59.4448 107.04 59.4448C107.226 59.4448 107.377 59.5952 107.377 59.7812Z" fill="#799CD9"/>
<path d="M118.922 59.7812C118.922 59.9672 118.771 60.1176 118.584 60.1176C118.398 60.1176 118.247 59.9672 118.247 59.7812C118.247 59.5952 118.398 59.4448 118.584 59.4448C118.771 59.4448 118.922 59.5952 118.922 59.7812Z" fill="#799CD9"/>
<path d="M130.467 59.7812C130.467 59.9672 130.316 60.1176 130.129 60.1176C129.943 60.1176 129.792 59.9672 129.792 59.7812C129.792 59.5952 129.943 59.4448 130.129 59.4448C130.316 59.4448 130.467 59.5952 130.467 59.7812Z" fill="#799CD9"/>
<path d="M142.011 59.7812C142.011 59.9672 141.86 60.1176 141.674 60.1176C141.487 60.1176 141.336 59.9672 141.336 59.7812C141.336 59.5952 141.487 59.4448 141.674 59.4448C141.86 59.4448 142.011 59.5952 142.011 59.7812Z" fill="#799CD9"/>
<path d="M153.556 59.7812C153.556 59.9672 153.405 60.1176 153.218 60.1176C153.032 60.1176 152.881 59.9672 152.881 59.7812C152.881 59.5952 153.032 59.4448 153.218 59.4448C153.405 59.4448 153.556 59.5952 153.556 59.7812Z" fill="#799CD9"/>
<path d="M165.101 59.7812C165.101 59.9672 164.95 60.1176 164.763 60.1176C164.577 60.1176 164.426 59.9672 164.426 59.7812C164.426 59.5952 164.577 59.4448 164.763 59.4448C164.95 59.4448 165.101 59.5952 165.101 59.7812Z" fill="#799CD9"/>
<path d="M176.645 59.7812C176.645 59.9672 176.494 60.1176 176.308 60.1176C176.121 60.1176 175.97 59.9672 175.97 59.7812C175.97 59.5952 176.121 59.4448 176.308 59.4448C176.494 59.4448 176.645 59.5952 176.645 59.7812Z" fill="#799CD9"/>
<path d="M114.384 55.5191C114.384 56.2128 113.82 56.7755 113.124 56.7755C112.428 56.7755 111.864 56.2133 111.864 55.5191C111.864 54.8249 112.428 54.2632 113.124 54.2632C113.82 54.2627 114.384 54.8249 114.384 55.5191Z" fill="#648EF9"/>
<path d="M124.418 49.6153C124.418 50.309 123.854 50.8712 123.158 50.8712C122.462 50.8712 121.898 50.309 121.898 49.6153C121.898 48.9216 122.462 48.3589 123.158 48.3589C123.854 48.3589 124.418 48.9211 124.418 49.6153Z" fill="#648EF9"/>
<path d="M136.872 50.1397C136.872 50.8334 136.308 51.3961 135.612 51.3961C134.916 51.3961 134.353 50.8339 134.353 50.1397C134.353 49.446 134.916 48.8838 135.612 48.8838C136.308 48.8838 136.872 49.446 136.872 50.1397Z" fill="#648EF9"/>
<path d="M149.032 39.4078C149.032 40.1015 148.468 40.6642 147.772 40.6642C147.076 40.6642 146.512 40.102 146.512 39.4078C146.512 38.7141 147.076 38.1519 147.772 38.1519C148.468 38.1514 149.032 38.7136 149.032 39.4078Z" fill="#648EF9"/>
<path d="M160.389 46.233C160.389 46.9267 159.825 47.4894 159.129 47.4894C158.433 47.4894 157.869 46.9272 157.869 46.233C157.869 45.5393 158.433 44.9771 159.129 44.9771C159.825 44.9771 160.389 45.5393 160.389 46.233Z" fill="#648EF9"/>
<path d="M171.89 48.0504C171.89 48.744 171.326 49.3063 170.63 49.3063C169.934 49.3063 169.37 48.744 169.37 48.0504C169.37 47.3567 169.934 46.7944 170.63 46.7944C171.326 46.7944 171.89 47.3567 171.89 48.0504Z" fill="#648EF9"/>
<path d="M182.646 55.5194C182.646 55.5194 182.545 55.5311 182.35 55.519C182.156 55.5058 181.865 55.4815 181.491 55.4046C180.754 55.2532 179.619 54.9363 178.5 53.9875C177.943 53.5182 177.434 52.8669 177.03 52.0817C176.624 51.3096 176.134 50.4913 175.49 49.7056C174.842 48.9433 174.004 48.163 172.891 47.8972C172.341 47.7648 171.745 47.7882 171.171 47.9585C170.596 48.1367 170.059 48.4517 169.575 48.8596C168.595 49.676 167.874 50.836 166.922 51.8889C166.446 52.4117 165.893 52.9214 165.195 53.2281C164.501 53.5275 163.695 53.62 162.924 53.414C162.137 53.2038 161.538 52.5466 161.197 51.8315C160.84 51.1101 160.642 50.3258 160.451 49.5421C160.257 48.7608 160.1 47.9508 159.766 47.2186C159.599 46.8574 159.366 46.5186 159.03 46.339C158.686 46.1525 158.276 46.1112 157.867 46.1141C157.038 46.1569 156.204 46.3954 155.339 46.559C154.905 46.6359 154.462 46.7128 154.005 46.7104C153.552 46.7119 153.076 46.6578 152.648 46.447C152.203 46.2689 151.863 45.913 151.571 45.5484C151.311 45.1634 151.086 44.7549 150.913 44.328C150.548 43.479 150.305 42.5897 149.975 41.7344C149.803 41.3123 149.622 40.8893 149.366 40.5198C149.11 40.1542 148.777 39.8471 148.368 39.6913C148.263 39.6611 148.161 39.6227 148.054 39.5969L147.722 39.5662C147.503 39.554 147.3 39.5959 147.107 39.6918C146.722 39.887 146.43 40.2613 146.186 40.6503C145.709 41.452 145.393 42.3648 145.118 43.2868C144.843 44.2117 144.612 45.1585 144.39 46.1136C144.022 47.6947 143.694 49.2719 143.286 50.8155C143.081 51.5866 142.859 52.3509 142.578 53.0942C142.29 53.8303 141.962 54.5726 141.384 55.1636C141.09 55.4469 140.687 55.6684 140.248 55.6655C139.828 55.666 139.429 55.5165 139.086 55.314C138.395 54.8988 137.886 54.2888 137.452 53.6657C136.581 52.4093 136.021 51.0103 135.479 49.6725C134.928 48.348 134.306 47.037 133.276 46.1389C132.268 45.2466 130.819 44.9146 129.579 45.2393C128.952 45.396 128.362 45.675 127.819 46.0114C127.27 46.338 126.763 46.7196 126.283 47.1188C125.325 47.9186 124.469 48.7939 123.719 49.6906L123.714 49.6969L123.712 49.6988C122.484 50.9212 121.199 51.9566 119.913 52.846C118.625 53.7305 117.324 54.4568 116.022 54.9479C114.724 55.4269 113.417 55.7103 112.213 55.5808C111.018 55.4644 109.965 55.1393 109.041 54.8155C107.192 54.1467 105.835 53.4257 104.92 52.937C104.464 52.6878 104.121 52.4882 103.893 52.3494C103.664 52.2112 103.553 52.1294 103.553 52.1294C103.553 52.1294 103.677 52.1907 103.911 52.3188C104.157 52.4502 104.505 52.6357 104.954 52.8752C105.877 53.3435 107.241 54.043 109.086 54.6885C110.007 55.001 111.055 55.313 112.227 55.4172C113.396 55.5355 114.678 55.2498 115.954 54.7693C117.234 54.2771 118.518 53.5518 119.79 52.6683C121.059 51.7823 122.336 50.7425 123.54 49.5338L123.533 49.5416C124.295 48.624 125.151 47.7429 126.122 46.9256C126.607 46.5181 127.123 46.1277 127.686 45.7904C128.241 45.4438 128.852 45.1512 129.515 44.9828C130.847 44.6328 132.372 44.9828 133.457 45.931C134.55 46.8827 135.183 48.2321 135.742 49.5635C136.289 50.908 136.842 52.2774 137.692 53.5002C138.113 54.1048 138.608 54.6865 139.235 55.0609C139.547 55.2444 139.895 55.3724 140.253 55.371C140.598 55.3705 140.917 55.2001 141.179 54.9509C141.693 54.4276 142.023 53.7081 142.3 52.9891C142.575 52.2618 142.794 51.5053 142.998 50.7401C143.402 49.2072 143.73 47.6314 144.098 46.0469C144.321 45.0889 144.553 44.1372 144.831 43.2021C145.111 42.2694 145.429 41.3425 145.932 40.4955C146.193 40.0837 146.504 39.6679 146.974 39.4265C147.206 39.3082 147.483 39.2546 147.735 39.2702L148.111 39.3062C148.233 39.335 148.354 39.3788 148.475 39.4153C148.952 39.5973 149.334 39.9556 149.61 40.3533C149.888 40.7554 150.073 41.195 150.25 41.6292C150.586 42.503 150.827 43.3914 151.181 44.2156C151.53 45.0285 151.98 45.8527 152.769 46.1881C153.538 46.559 154.449 46.4281 155.286 46.283C156.137 46.1253 156.977 45.8833 157.858 45.8385C158.297 45.8366 158.756 45.8799 159.162 46.1004C159.575 46.3244 159.834 46.7211 160.011 47.1047C160.365 47.8879 160.516 48.7014 160.708 49.4817C160.896 50.2625 161.09 51.0322 161.427 51.7181C161.755 52.4015 162.29 52.9842 162.995 53.1765C163.692 53.3663 164.457 53.2855 165.099 53.009C165.749 52.7267 166.283 52.2443 166.751 51.7336C167.69 50.707 168.421 49.5392 169.439 48.698C169.941 48.2784 170.51 47.9488 171.113 47.7663C171.718 47.5895 172.355 47.5686 172.936 47.7127C174.114 48.0043 174.966 48.8197 175.621 49.6C176.27 50.4052 176.756 51.2356 177.158 52.0174C177.549 52.7968 178.036 53.4325 178.577 53.9008C179.662 54.8447 180.777 55.1782 181.504 55.3466C181.873 55.4323 182.161 55.4669 182.354 55.4897C182.546 55.5102 182.646 55.5131 182.646 55.5194Z" fill="#648EF9"/>
<path d="M114.505 33.8916C114.505 33.9744 110.04 34.0416 104.533 34.0416C99.0251 34.0416 94.561 33.9744 94.561 33.8916C94.561 33.8089 99.0251 33.7417 104.533 33.7417C110.04 33.7417 114.505 33.8089 114.505 33.8916Z" fill="#263238"/>
<path d="M197.224 25.498V73.2712H203.021H211.002H248.209V25.498H197.224Z" fill="black"/>
<path d="M222.49 30.9121C213.802 30.9121 206.759 37.9346 206.759 46.5971C206.759 55.2597 213.802 62.2817 222.49 62.2817C231.178 62.2817 238.221 55.2597 238.221 46.5971C238.222 37.9346 231.178 30.9121 222.49 30.9121ZM222.727 55.9952C217.39 55.9952 213.064 51.6817 213.064 46.3601C213.064 41.0389 217.39 36.7249 222.727 36.7249C228.064 36.7249 232.391 41.0384 232.391 46.3601C232.391 51.6817 228.065 55.9952 222.727 55.9952Z" fill="#263238"/>
<path d="M222.731 30.9185C222.732 32.5872 222.731 34.8376 222.73 36.7254C228.066 36.7269 232.391 41.0399 232.391 46.3606C232.391 47.3794 232.232 48.3603 231.938 49.2818L237.639 50.8235C238.016 49.4785 238.222 48.0619 238.222 46.5972C238.222 38.015 231.308 31.0475 222.731 30.9185Z" fill="#648EF9"/>
<path d="M213.064 46.3604C213.064 42.4368 215.417 39.0638 218.793 37.5606L216.373 32.1426C210.724 34.5225 206.759 40.0978 206.759 46.597C206.759 46.8175 206.767 47.0366 206.776 47.2551H213.107C213.08 46.9601 213.064 46.6622 213.064 46.3604Z" fill="#656565"/>
<path d="M222.727 55.9951C222.026 55.9951 221.342 55.9187 220.683 55.777C220.44 57.1751 219.981 59.8837 219.62 62.0163C220.551 62.1877 221.51 62.2816 222.49 62.2816C229.709 62.2816 235.788 57.4321 237.639 50.8234L231.938 49.2817C230.696 53.1746 227.043 55.9951 222.727 55.9951Z" fill="#648EF9"/>
<g opacity="0.3">
<path d="M222.727 55.9951C222.026 55.9951 221.342 55.9187 220.683 55.777C220.44 57.1751 219.981 59.8837 219.62 62.0163C220.551 62.1877 221.51 62.2816 222.49 62.2816C229.709 62.2816 235.788 57.4321 237.639 50.8234L231.938 49.2817C230.696 53.1746 227.043 55.9951 222.727 55.9951Z" fill="black"/>
</g>
<path d="M220.64 47.1408H220.057V47.8895H219.251V47.1408H217.325V46.5859L219.011 44.3247H219.879L218.316 46.4686H219.277V45.8016H220.058V46.4686H220.64V47.1408H220.64Z" fill="#263238"/>
<path d="M220.884 46.1067C220.884 44.9306 221.538 44.2637 222.416 44.2637C223.3 44.2637 223.948 44.9306 223.948 46.1067C223.948 47.2833 223.3 47.9502 222.416 47.9502C221.538 47.9502 220.884 47.2833 220.884 46.1067ZM223.116 46.1067C223.116 45.2971 222.829 44.9608 222.416 44.9608C222.007 44.9608 221.721 45.2971 221.721 46.1067C221.721 46.9162 222.007 47.2526 222.416 47.2526C222.83 47.2526 223.116 46.9167 223.116 46.1067Z" fill="#263238"/>
<path d="M224.29 45.2665C224.29 44.6658 224.658 44.2837 225.179 44.2837C225.7 44.2837 226.062 44.6605 226.062 45.2665C226.062 45.8726 225.7 46.2494 225.179 46.2494C224.658 46.2499 224.29 45.8677 224.29 45.2665ZM225.552 45.2665C225.552 44.8844 225.403 44.7014 225.179 44.7014C224.959 44.7014 224.806 44.8898 224.806 45.2665C224.806 45.6433 224.959 45.8317 225.179 45.8317C225.403 45.8322 225.552 45.6487 225.552 45.2665ZM227.308 44.3246H227.916L225.475 47.8889H224.867L227.308 44.3246ZM226.721 46.947C226.721 46.3462 227.089 45.9641 227.605 45.9641C228.126 45.9641 228.493 46.3458 228.493 46.947C228.493 47.5477 228.126 47.9298 227.605 47.9298C227.089 47.9298 226.721 47.5481 226.721 46.947ZM227.977 46.947C227.977 46.5702 227.829 46.3818 227.604 46.3818C227.385 46.3818 227.231 46.5653 227.231 46.947C227.231 47.3286 227.385 47.5121 227.604 47.5121C227.829 47.5126 227.977 47.3237 227.977 46.947Z" fill="#263238"/>
<path d="M235.508 66.2393C235.508 66.3216 229.679 66.3883 222.491 66.3883C215.3 66.3883 209.473 66.3216 209.473 66.2393C209.473 66.157 215.3 66.0903 222.491 66.0903C229.679 66.0903 235.508 66.157 235.508 66.2393Z" fill="#263238"/>
<path d="M229.71 68.6226C229.71 68.7049 226.478 68.7716 222.491 68.7716C218.503 68.7716 215.271 68.7049 215.271 68.6226C215.271 68.5403 218.503 68.4736 222.491 68.4736C226.478 68.4736 229.71 68.5403 229.71 68.6226Z" fill="#263238"/>
<path d="M242.322 76.4487H139.989V109.968H242.322V76.4487Z" fill="#17171E"/>
<path d="M233.691 84.3776C233.691 84.4375 216.3 84.4857 194.852 84.4857C173.397 84.4857 156.01 84.4375 156.01 84.3776C156.01 84.3177 173.397 84.2695 194.852 84.2695C216.3 84.2695 233.691 84.3177 233.691 84.3776Z" fill="black"/>
<path d="M233.691 88.3439C233.691 88.4038 216.3 88.452 194.852 88.452C173.397 88.452 156.01 88.4038 156.01 88.3439C156.01 88.284 173.397 88.2358 194.852 88.2358C216.3 88.2354 233.691 88.284 233.691 88.3439Z" fill="black"/>
<path d="M233.691 92.3102C233.691 92.3701 216.3 92.4183 194.852 92.4183C173.397 92.4183 156.01 92.3701 156.01 92.3102C156.01 92.2508 173.397 92.2021 194.852 92.2021C216.3 92.2021 233.691 92.2508 233.691 92.3102Z" fill="black"/>
<path d="M233.691 96.2765C233.691 96.3364 216.3 96.3846 194.852 96.3846C173.397 96.3846 156.01 96.3364 156.01 96.2765C156.01 96.2167 173.397 96.1685 194.852 96.1685C216.3 96.1685 233.691 96.2167 233.691 96.2765Z" fill="black"/>
<path d="M233.691 100.243C233.691 100.303 216.3 100.351 194.852 100.351C173.397 100.351 156.01 100.303 156.01 100.243C156.01 100.183 173.397 100.135 194.852 100.135C216.3 100.135 233.691 100.183 233.691 100.243Z" fill="black"/>
<path d="M226.926 95.6231C226.926 95.6231 226.872 95.6845 226.757 95.7979C226.627 95.8962 226.428 96.0505 226.104 96.1562C225.479 96.3689 224.339 96.3806 223.269 95.7059C222.752 95.3583 222.304 94.8525 221.935 94.2513C221.562 93.6502 221.268 92.956 220.918 92.2297C220.564 91.5112 220.126 90.7401 219.398 90.1194C219.033 89.8142 218.587 89.563 218.079 89.4233C217.569 89.2909 217.009 89.2588 216.454 89.3454C215.338 89.507 214.264 90.0396 213.355 90.7654C212.43 91.4873 211.616 92.3767 210.621 93.1823C209.64 93.9865 208.359 94.6783 206.868 94.7766C206.13 94.817 205.355 94.6564 204.721 94.2815C204.085 93.9067 203.606 93.3654 203.225 92.791C202.452 91.6387 202.061 90.2986 201.057 89.2466C200.571 88.7272 199.939 88.2711 199.177 88.1216C198.417 87.9615 197.594 88.1513 196.968 88.5802C196.332 89.0032 195.852 89.602 195.516 90.2504C195.179 90.9002 195.008 91.6197 194.828 92.3387C194.651 93.0592 194.477 93.7981 194.147 94.5064C193.987 94.8618 193.77 95.1986 193.52 95.5199C193.249 95.8261 192.955 96.1236 192.602 96.364C191.915 96.8659 191.091 97.2057 190.233 97.3868C189.376 97.5752 188.472 97.5854 187.619 97.4199C186.754 97.2685 185.987 96.8718 185.31 96.4351C184.628 95.996 184.01 95.5087 183.363 95.0721C182.715 94.6447 182.032 94.2411 181.265 94.0844C180.505 93.9062 179.691 94.0143 179.017 94.3365C178.341 94.6607 177.789 95.1509 177.341 95.685C176.892 96.2214 176.552 96.8182 176.207 97.4029C175.864 97.9885 175.52 98.5736 175.086 99.1047C174.656 99.6387 174.109 100.1 173.474 100.426C172.843 100.752 172.097 100.939 171.37 100.852C170.642 100.77 170.004 100.415 169.544 99.9707C169.079 99.5243 168.756 98.9971 168.537 98.4573C168.319 97.9159 168.194 97.3678 168.077 96.8343C167.853 95.7701 167.633 94.7352 166.997 93.9116C166.404 93.0879 165.507 92.4371 164.5 92.3066C164.002 92.2433 163.502 92.3071 163.062 92.4614C162.62 92.6152 162.237 92.8547 161.907 93.1191C160.596 94.2046 159.965 95.5156 158.992 96.275C158.072 97.0631 157.077 97.4272 156.385 97.4077C156.043 97.4043 155.787 97.3459 155.625 97.2914C155.464 97.2325 155.385 97.1974 155.385 97.1974C155.392 97.1697 155.708 97.3678 156.384 97.3644C157.059 97.3693 158.025 97.0022 158.924 96.2151C159.871 95.4615 160.481 94.1525 161.812 93.031C162.148 92.7579 162.541 92.5067 163.005 92.3421C163.466 92.1776 163.994 92.107 164.523 92.1713C165.594 92.3056 166.529 92.9852 167.145 93.8303C167.463 94.2538 167.706 94.7328 167.87 95.2395C168.036 95.7453 168.147 96.2715 168.266 96.8031C168.385 97.3342 168.512 97.875 168.725 98.3998C168.939 98.9207 169.253 99.4279 169.697 99.85C170.136 100.27 170.728 100.596 171.398 100.668C172.066 100.747 172.761 100.574 173.361 100.263C173.964 99.9507 174.486 99.5097 174.9 98.9922C175.321 98.4758 175.66 97.8994 176.001 97.3128C176.345 96.7277 176.686 96.1236 177.149 95.5662C177.611 95.0141 178.182 94.5016 178.902 94.155C179.618 93.8093 180.507 93.6901 181.322 93.8809C182.147 94.0503 182.854 94.4714 183.513 94.9046C184.17 95.3476 184.788 95.8339 185.457 96.2633C186.124 96.6921 186.851 97.0665 187.673 97.2101C188.486 97.3678 189.351 97.3585 190.173 97.1775C190.996 97.0037 191.786 96.677 192.442 96.198C192.779 95.9683 193.057 95.6854 193.315 95.3948C193.552 95.0906 193.76 94.7693 193.915 94.4261C194.234 93.7426 194.406 93.0159 194.584 92.2944C194.766 91.574 194.936 90.8443 195.289 90.1632C195.64 89.4895 196.138 88.8645 196.818 88.4122C197.486 87.9532 198.399 87.74 199.23 87.9181C200.068 88.0841 200.737 88.5773 201.242 89.1171C202.282 90.2163 202.673 91.574 203.424 92.6921C203.795 93.2534 204.253 93.7684 204.847 94.1204C205.44 94.4714 206.157 94.6228 206.855 94.5867C208.268 94.4972 209.516 93.8376 210.479 93.0509C211.462 92.2613 212.281 91.3724 213.225 90.6418C214.156 89.9047 215.262 89.3581 216.425 89.1945C217.002 89.1069 217.593 89.1419 218.129 89.2846C218.665 89.434 219.132 89.7013 219.508 90.0206C220.26 90.669 220.695 91.4562 221.047 92.183C221.392 92.9161 221.678 93.6073 222.04 94.2032C222.397 94.798 222.832 95.2975 223.328 95.6387C224.358 96.3042 225.473 96.31 226.087 96.1148C226.721 95.905 226.91 95.6017 226.926 95.6231Z" fill="#656565"/>
<path d="M231.84 94.6975C231.84 94.6975 231.75 94.7068 231.571 94.7136C231.482 94.7107 231.372 94.6907 231.24 94.6747C231.116 94.6352 230.961 94.6109 230.807 94.5393C230.161 94.2993 229.356 93.7162 228.494 92.855C228.278 92.6394 228.058 92.4062 227.833 92.1565C227.602 91.9097 227.396 91.6273 227.115 91.3912C226.552 90.9186 225.745 90.5637 224.828 90.4911C224.371 90.4522 223.892 90.5014 223.434 90.643C222.976 90.79 222.561 91.0519 222.19 91.3684C221.442 92.0046 220.88 92.8526 220.145 93.6548C219.776 94.0545 219.357 94.4483 218.835 94.7545C218.316 95.0626 217.695 95.2651 217.044 95.3338C215.731 95.4667 214.38 95.1546 213.101 94.6961C211.812 94.2331 210.58 93.5954 209.193 93.1875C208.505 92.9782 207.779 92.8351 207.037 92.8136C206.296 92.8029 205.543 92.93 204.86 93.225C203.472 93.7994 202.387 94.847 201.081 95.7023C200.433 96.1389 199.69 96.4977 198.893 96.7387C198.095 96.9796 197.244 97.096 196.386 97.114C194.669 97.1403 192.918 96.7255 191.41 95.9218C189.899 95.1215 188.616 93.9854 187.634 92.6715C186.621 91.3615 186.067 89.8734 185.336 88.5157C184.966 87.8386 184.547 87.1819 184 86.6255C183.45 86.0725 182.783 85.6066 182.031 85.3112C181.284 85.0118 180.435 84.9135 179.658 85.095C178.878 85.2678 178.205 85.6947 177.688 86.2142C177.165 86.735 176.781 87.3479 176.508 87.9827C176.236 88.6209 176.06 89.2824 175.899 89.9382C175.737 90.5944 175.591 91.2496 175.383 91.8853C175.181 92.5221 174.895 93.1344 174.538 93.6996C173.826 94.8329 172.83 95.7836 171.687 96.4816C170.552 97.1899 169.255 97.6276 167.968 97.7824C166.673 97.9269 165.405 97.7673 164.29 97.4143C162.038 96.7148 160.45 95.2014 159.856 93.6543C159.549 92.8833 159.395 92.1399 159.174 91.4779C158.954 90.8193 158.69 90.2195 158.289 89.778C157.474 88.8901 156.395 88.5839 155.724 88.6413C155.03 88.6978 154.763 88.9762 154.751 88.947C154.752 88.966 155.008 88.6715 155.72 88.598C156.409 88.5255 157.517 88.8239 158.365 89.7264C158.787 90.1806 159.059 90.7857 159.288 91.4496C159.518 92.1156 159.68 92.8575 159.988 93.6144C160.582 95.1249 162.143 96.5951 164.351 97.2712C165.444 97.6125 166.684 97.7624 167.942 97.6173C169.196 97.4616 170.46 97.0317 171.567 96.3356C172.681 95.6507 173.653 94.7175 174.345 93.6086C175.065 92.505 175.366 91.214 175.674 89.8968C175.834 89.2381 176.01 88.5678 176.288 87.9121C176.569 87.2574 176.963 86.624 177.508 86.0788C178.047 85.5361 178.76 85.0785 179.598 84.892C180.434 84.6958 181.347 84.8034 182.133 85.1179C182.925 85.429 183.618 85.9133 184.189 86.4868C184.76 87.067 185.186 87.7373 185.562 88.4242C186.304 89.8033 186.851 91.2695 187.845 92.5537C188.809 93.8442 190.067 94.9565 191.54 95.7383C193.011 96.5225 194.712 96.9256 196.383 96.9022C197.216 96.8852 198.042 96.7732 198.815 96.5406C199.587 96.3074 200.3 95.9656 200.938 95.5373C202.223 94.7014 203.316 93.6431 204.761 93.0449C205.473 92.7387 206.27 92.6048 207.043 92.6184C207.817 92.6423 208.565 92.7927 209.266 93.0074C210.675 93.4265 211.916 94.073 213.181 94.5301C214.441 94.9872 215.762 95.2919 217.02 95.1678C217.645 95.1035 218.235 94.9137 218.732 94.6211C219.232 94.3305 219.641 93.9503 220.007 93.5584C220.736 92.7718 221.305 91.9209 222.079 91.269C222.462 90.9453 222.898 90.6727 223.382 90.5208C223.867 90.3738 224.367 90.3271 224.842 90.3699C225.793 90.4517 226.621 90.8236 227.199 91.3172C227.491 91.5674 227.694 91.8532 227.919 92.0985C228.14 92.3488 228.357 92.5829 228.568 92.7995C229.415 93.6641 230.2 94.2507 230.828 94.4989C231.453 94.7749 231.848 94.6688 231.84 94.6975Z" fill="#648EF9"/>
<path d="M150.677 84.5749C150.677 84.6347 150.217 84.6829 149.65 84.6829C149.082 84.6829 148.623 84.6347 148.623 84.5749C148.623 84.515 149.082 84.4668 149.65 84.4668C150.217 84.4668 150.677 84.515 150.677 84.5749Z" fill="#799CD9"/>
<path d="M150.677 88.3439C150.677 88.4038 150.217 88.452 149.65 88.452C149.082 88.452 148.623 88.4038 148.623 88.3439C148.623 88.284 149.082 88.2358 149.65 88.2358C150.217 88.2354 150.677 88.284 150.677 88.3439Z" fill="#799CD9"/>
<path d="M150.677 92.1129C150.677 92.1728 150.217 92.221 149.65 92.221C149.082 92.221 148.623 92.1728 148.623 92.1129C148.623 92.0531 149.082 92.0049 149.65 92.0049C150.217 92.0049 150.677 92.0536 150.677 92.1129Z" fill="#799CD9"/>
<path d="M150.677 95.882C150.677 95.9419 150.217 95.9901 149.65 95.9901C149.082 95.9901 148.623 95.9419 148.623 95.882C148.623 95.8221 149.082 95.7739 149.65 95.7739C150.217 95.7739 150.677 95.8226 150.677 95.882Z" fill="#799CD9"/>
<path d="M150.677 99.6515C150.677 99.7114 150.217 99.7596 149.65 99.7596C149.082 99.7596 148.623 99.7114 148.623 99.6515C148.623 99.5916 149.082 99.5435 149.65 99.5435C150.217 99.5435 150.677 99.5916 150.677 99.6515Z" fill="#799CD9"/>
<path d="M160.119 104.496C160.119 104.556 159.199 104.604 158.064 104.604C156.93 104.604 156.01 104.556 156.01 104.496C156.01 104.436 156.93 104.388 158.064 104.388C159.199 104.388 160.119 104.436 160.119 104.496Z" fill="#799CD9"/>
<path d="M178.231 104.496C178.231 104.556 177.311 104.604 176.177 104.604C175.042 104.604 174.123 104.556 174.123 104.496C174.123 104.436 175.042 104.388 176.177 104.388C177.311 104.388 178.231 104.436 178.231 104.496Z" fill="#799CD9"/>
<path d="M196.343 104.496C196.343 104.556 195.423 104.604 194.289 104.604C193.154 104.604 192.234 104.556 192.234 104.496C192.234 104.436 193.154 104.388 194.289 104.388C195.423 104.388 196.343 104.436 196.343 104.496Z" fill="#799CD9"/>
<path d="M214.456 104.496C214.456 104.556 213.536 104.604 212.401 104.604C211.267 104.604 210.347 104.556 210.347 104.496C210.347 104.436 211.267 104.388 212.401 104.388C213.536 104.388 214.456 104.436 214.456 104.496Z" fill="#799CD9"/>
<path d="M232.569 104.496C232.569 104.556 231.649 104.604 230.514 104.604C229.379 104.604 228.459 104.556 228.459 104.496C228.459 104.436 229.379 104.388 230.514 104.388C231.648 104.388 232.569 104.436 232.569 104.496Z" fill="#799CD9"/>
<path d="M256.338 54.9533C256.338 54.9533 269.254 55.5277 270.664 66.7888C272.074 78.0503 261.147 77.6419 257.995 77.6759C256.566 77.691 253.713 77.6832 251.02 77.6696C245.309 77.6414 240.752 75.5058 239.634 69.9218C239.504 69.2704 239.429 68.6055 239.425 67.9323C239.39 61.879 243.949 53.9559 256.338 54.9533Z" fill="#648EF9"/>
<path d="M244.324 68.109L260.867 69.2788C262.601 69.4015 264.106 68.0993 264.229 66.3707C264.352 64.6421 263.046 63.1413 261.312 63.0186L244.769 61.8488C243.036 61.7262 241.53 63.0283 241.407 64.7569C241.284 66.4855 242.59 67.9868 244.324 68.109Z" fill="#263238"/>
<path d="M257.226 66.3451C257.302 66.8961 257.813 67.2802 258.365 67.2038C258.918 67.1269 259.303 66.6182 259.226 66.0676C259.149 65.5166 258.639 65.1325 258.087 65.2089C257.534 65.2858 257.148 65.7945 257.226 66.3451Z" fill="black"/>
<path d="M245.669 65.5248C245.745 66.0758 246.256 66.4599 246.808 66.3835C247.361 66.3066 247.746 65.7983 247.669 65.2473C247.592 64.6962 247.082 64.3122 246.53 64.3886C245.977 64.465 245.591 64.9737 245.669 65.5248Z" fill="black"/>
<path d="M252.26 61.5661C252.289 61.5734 252.42 61.1066 252.64 60.3589C252.856 59.6116 253.222 58.5986 253.846 57.5914C254.455 56.5789 255.271 55.8502 255.956 55.4968C256.639 55.1331 257.13 55.063 257.119 55.0251C257.118 55.0129 256.995 55.0216 256.778 55.064C256.562 55.1098 256.251 55.1988 255.892 55.3712C255.167 55.7017 254.299 56.4475 253.675 57.4873C253.039 58.5134 252.685 59.5615 252.503 60.3219C252.408 60.7025 252.344 61.0126 252.303 61.2273C252.262 61.4425 252.247 61.5632 252.26 61.5661Z" fill="black"/>
<path d="M254.098 77.682C254.12 77.6542 253.711 77.3578 253.175 76.7585C252.644 76.1622 252.005 75.2266 251.671 74.051C251.367 72.8681 251.246 71.7523 251.264 70.9501C251.273 70.1435 251.287 69.6411 251.257 69.6397C251.243 69.6387 251.222 69.7633 251.198 69.9887C251.173 70.2141 251.143 70.5407 251.122 70.9467C251.069 71.7621 251.166 72.8948 251.478 74.106C251.823 75.3196 252.502 76.2717 253.07 76.8544C253.356 77.1485 253.613 77.3583 253.796 77.4951C253.982 77.628 254.09 77.6922 254.098 77.682Z" fill="black"/>
<g opacity="0.3">
<path d="M242.563 75.1239C243.907 74.1961 244.932 74.2302 246.643 73.9074C248.353 73.5847 250.101 73.5039 251.835 73.4649C255.844 73.3758 259.983 73.535 263.436 74.936C264.409 75.3308 265.238 75.8166 265.764 76.5668C265.764 76.5668 264.105 77.4649 260.691 77.6002C257.428 77.7292 250.6 77.6548 250.6 77.6548C250.6 77.6548 247.545 77.683 244.919 76.5595C242.759 75.6346 242.563 75.1239 242.563 75.1239Z" fill="black"/>
</g>
<path d="M240.387 64.5766C240.387 64.5766 240.329 64.7781 240.324 65.1734C240.321 65.5638 240.376 66.1655 240.714 66.8446C241.044 67.5188 241.713 68.2407 242.707 68.6647C243.697 69.0994 244.927 69.241 246.257 69.3365C248.927 69.5424 252.101 69.7867 255.625 70.0584C256.507 70.1256 257.41 70.1942 258.333 70.2643C259.257 70.3237 260.195 70.4361 261.169 70.4269C262.132 70.4201 263.178 70.2049 263.974 69.5404C264.757 68.8852 265.279 67.9175 265.405 66.8825C265.54 65.8457 265.246 64.782 264.644 63.9647C264.045 63.142 263.165 62.5598 262.218 62.2993C261.741 62.1606 261.253 62.1387 260.788 62.0929C260.318 62.0496 259.852 62.0068 259.391 61.9649C258.47 61.8807 257.567 61.7979 256.687 61.7176C254.926 61.5575 253.253 61.4056 251.686 61.263C250.117 61.1486 248.67 60.9139 247.329 60.8346C246.659 60.7937 246.017 60.7927 245.413 60.8399C244.81 60.8799 244.239 60.9733 243.727 61.133C242.698 61.4397 241.907 61.9727 241.386 62.514C240.87 63.0675 240.624 63.6161 240.513 63.9915C240.447 64.1779 240.429 64.3283 240.409 64.4271C240.391 64.5255 240.384 64.5761 240.387 64.5766C240.403 64.58 240.424 64.3716 240.551 64.0026C240.673 63.6346 240.927 63.1016 241.442 62.5666C241.962 62.0438 242.744 61.5302 243.759 61.2391C244.264 61.0872 244.822 61.0011 245.422 60.966C246.02 60.9241 246.654 60.9295 247.319 60.9748C248.649 61.0624 250.098 61.3053 251.666 61.4265C253.233 61.575 254.906 61.7332 256.666 61.8997C257.547 61.9825 258.45 62.0676 259.371 62.1543C259.832 62.1976 260.298 62.2409 260.768 62.2852C261.241 62.3325 261.714 62.3548 262.165 62.4877C263.071 62.7384 263.913 63.2968 264.482 64.0815C265.055 64.8604 265.334 65.8719 265.206 66.8577C265.086 67.843 264.586 68.7679 263.846 69.3871C263.098 70.0121 262.109 70.2224 261.165 70.2307C260.214 70.2414 259.27 70.1314 258.347 70.0735C257.424 70.0058 256.52 69.9391 255.638 69.8744C252.113 69.6188 248.937 69.389 246.266 69.1953C244.936 69.1091 243.723 68.9777 242.75 68.562C241.776 68.1574 241.117 67.4633 240.783 66.8095C240.441 66.1509 240.374 65.5599 240.364 65.1739C240.357 64.782 240.4 64.578 240.387 64.5766Z" fill="black"/>
<path d="M270.749 68.6742C270.761 68.6523 270.506 68.4687 270.06 68.2234C269.614 67.9781 268.974 67.6801 268.235 67.4367C267.495 67.1943 266.802 67.0551 266.298 66.9889C265.793 66.9222 265.479 66.9183 265.476 66.9436C265.467 67.0069 266.715 67.1451 268.172 67.6271C269.631 68.1017 270.717 68.7297 270.749 68.6742Z" fill="black"/>
<path d="M255.733 56.6419C255.633 56.5952 255.498 56.6862 255.505 56.7958C255.511 56.9058 255.654 56.9808 255.748 56.9238C255.842 56.8664 255.841 56.7052 255.746 56.6493" fill="black"/>
<path d="M254.14 59.8283C254.04 59.782 253.906 59.8726 253.912 59.9821C253.919 60.0921 254.062 60.1671 254.156 60.1101C254.25 60.0527 254.249 59.8916 254.154 59.8356" fill="black"/>
<path d="M267.361 66.2941C267.261 66.2479 267.127 66.3384 267.133 66.4479C267.139 66.558 267.282 66.6329 267.377 66.576C267.471 66.5185 267.47 66.3574 267.375 66.3014" fill="black"/>
<path d="M270.042 67.2809C269.942 67.2347 269.808 67.3252 269.814 67.4348C269.821 67.5448 269.964 67.6197 270.058 67.5628C270.152 67.5053 270.151 67.3442 270.056 67.2882" fill="black"/>
<g opacity="0.3">
<path d="M252.961 55.6077C252.951 55.7542 254.13 55.9202 255.999 56.243C257.857 56.5755 260.444 57.0861 262.952 58.3956C264.19 59.0552 265.264 59.8735 266.118 60.7371C266.968 61.6036 267.61 62.5007 268.035 63.3156C268.9 64.9479 268.989 66.1493 269.16 66.1293C269.223 66.1254 269.274 65.8231 269.241 65.274C269.212 64.7254 269.054 63.9329 268.677 63.0148C268.304 62.0957 267.672 61.0764 266.79 60.1038C265.905 59.1341 264.761 58.2247 263.422 57.5116C262.084 56.813 260.718 56.3545 259.462 56.0614C258.203 55.7659 257.054 55.6184 256.091 55.542C254.161 55.394 252.97 55.4792 252.961 55.6077Z" fill="black"/>
</g>
<g opacity="0.3">
<path d="M267.654 71.9737C267.849 72.1641 268.536 71.7668 268.963 70.9451C269.394 70.1244 269.328 69.3363 269.06 69.2857C268.784 69.2287 268.436 69.8012 268.074 70.4827C267.721 71.1681 267.45 71.781 267.654 71.9737Z" fill="black"/>
</g>
<path d="M250.107 65.7442C250.09 65.7384 250.022 66.0855 250.235 66.5883C250.343 66.8342 250.525 67.1116 250.807 67.3399C251.088 67.5702 251.471 67.7299 251.888 67.7668C252.305 67.8019 252.711 67.7099 253.026 67.5317C253.344 67.3555 253.571 67.1136 253.72 66.8897C254.016 66.4306 254.009 66.0767 253.991 66.0796C253.956 66.0694 253.91 66.4019 253.604 66.8079C253.451 67.0065 253.231 67.2182 252.939 67.3691C252.649 67.522 252.283 67.5989 251.905 67.5677C251.527 67.5337 251.18 67.3954 250.921 67.1949C250.659 66.9963 250.479 66.7495 250.363 66.528C250.132 66.0757 250.144 65.7403 250.107 65.7442Z" fill="black"/>
<path d="M240.185 81.6785C239.431 81.9521 240.293 93.0423 240.873 98.692C241.184 101.72 241.644 104.869 243.387 107.368C245.329 110.152 248.775 111.391 252.157 111.75C256.867 112.249 260.558 110.025 262.698 106.291C264.73 102.749 266.187 98.6784 266.702 94.6302C267.295 89.9672 267.696 86.9276 267.568 82.8493C267.568 82.8493 253.863 76.7147 240.185 81.6785Z" fill="#648EF9"/>
<path d="M259.046 104.077C258.949 104.024 258.809 104.106 258.808 104.216C258.807 104.326 258.945 104.41 259.043 104.359C259.141 104.308 259.15 104.147 259.059 104.085" fill="black"/>
<path d="M254.101 104.242C254.004 104.189 253.865 104.271 253.863 104.381C253.862 104.491 254 104.575 254.098 104.525C254.196 104.473 254.205 104.312 254.114 104.25" fill="black"/>
<path d="M248.341 99.5591C248.245 99.506 248.105 99.5878 248.104 99.6978C248.103 99.8078 248.241 99.892 248.338 99.8414C248.436 99.7903 248.445 99.6292 248.354 99.5673" fill="black"/>
<path d="M249.897 86.8442C249.801 86.7912 249.661 86.8729 249.66 86.983C249.659 87.093 249.797 87.1772 249.895 87.1266C249.992 87.0755 250.002 86.9143 249.911 86.8525" fill="black"/>
<path d="M244.999 89.2676C244.903 89.2145 244.763 89.2963 244.762 89.4063C244.761 89.5163 244.899 89.6005 244.997 89.5499C245.094 89.4988 245.103 89.3377 245.013 89.2759" fill="black"/>
<path d="M264.529 102.218C264.432 102.165 264.292 102.247 264.291 102.357C264.29 102.467 264.428 102.551 264.526 102.501C264.624 102.449 264.633 102.288 264.542 102.227" fill="black"/>
<path d="M265.037 97.9868C264.94 97.9337 264.801 98.0155 264.799 98.1255C264.798 98.2356 264.937 98.3198 265.034 98.2691C265.132 98.218 265.142 98.0569 265.05 97.9951" fill="black"/>
<path d="M265.116 94.1836C265.02 94.1305 264.88 94.2123 264.878 94.3223C264.877 94.4323 265.016 94.5165 265.113 94.4659C265.211 94.4148 265.221 94.2537 265.129 94.1919" fill="black"/>
<path d="M265.181 90.1435C265.084 90.0905 264.945 90.1723 264.943 90.2823C264.942 90.3923 265.081 90.4765 265.178 90.4254C265.276 90.3743 265.286 90.2131 265.194 90.1513" fill="black"/>
<path d="M241.929 88.5049C241.833 88.4518 241.693 88.5336 241.691 88.6436C241.69 88.7536 241.829 88.8378 241.926 88.7872C242.024 88.7361 242.034 88.575 241.942 88.5131" fill="black"/>
<path d="M247.864 104.317C247.768 104.264 247.628 104.346 247.626 104.456C247.625 104.566 247.764 104.65 247.861 104.6C247.959 104.549 247.969 104.387 247.877 104.326" fill="black"/>
<path d="M247.614 108.318C247.517 108.265 247.377 108.347 247.376 108.457C247.375 108.567 247.513 108.651 247.611 108.6C247.708 108.549 247.718 108.388 247.627 108.326" fill="black"/>
<path d="M259.87 109.013C259.875 109.017 259.943 108.956 260.068 108.833C260.193 108.711 260.373 108.525 260.59 108.273C261.023 107.774 261.625 106.993 262.046 105.869C262.259 105.311 262.414 104.672 262.554 103.991C262.705 103.311 262.85 102.581 262.998 101.811C263.29 100.272 263.562 98.5694 263.784 96.7746C264.233 93.183 264.371 89.9054 264.388 87.5366C264.392 86.3518 264.373 85.3933 264.348 84.7312C264.332 84.4168 264.32 84.1636 264.311 83.9694C264.3 83.7951 264.291 83.7041 264.285 83.7041C264.278 83.7041 264.273 83.7961 264.27 83.9704C264.27 84.1651 264.27 84.4177 264.269 84.7327C264.271 85.3943 264.268 86.3523 264.246 87.5347C264.193 89.8991 264.033 93.1669 263.585 96.7502C263.363 98.5406 263.098 100.24 262.817 101.778C262.674 102.546 262.536 103.277 262.392 103.957C262.258 104.641 262.114 105.268 261.913 105.821C261.517 106.93 260.942 107.712 260.53 108.223C260.324 108.481 260.154 108.675 260.039 108.805C259.923 108.937 259.865 109.008 259.87 109.013Z" fill="black"/>
<path d="M250.031 97.4609C249.976 97.4585 249.786 100.539 249.607 104.34C249.429 108.143 249.329 111.227 249.384 111.23C249.439 111.232 249.629 108.153 249.808 104.35C249.986 100.548 250.086 97.4634 250.031 97.4609Z" fill="black"/>
<path d="M254.554 79.8451C254.543 79.8373 254.453 79.9425 254.299 80.1396C254.146 80.3368 253.929 80.6259 253.664 80.9857C253.136 81.7052 252.416 82.707 251.632 83.8203C251.534 83.9595 251.438 84.0973 251.342 84.2331L251.307 84.2837C251.291 84.2998 251.274 84.3144 251.266 84.3475C251.256 84.3757 251.247 84.4059 251.24 84.4337L251.233 84.4984C251.222 84.5855 251.22 84.6673 251.216 84.7486C251.206 85.0738 251.21 85.3834 251.216 85.6789C251.229 86.2699 251.255 86.8005 251.279 87.2459C251.304 87.6913 251.33 88.0515 251.352 88.3003C251.374 88.549 251.391 88.6858 251.405 88.6858C251.435 88.6848 251.435 88.1323 251.421 87.241C251.415 86.7781 251.408 86.2518 251.401 85.6765C251.4 85.3824 251.399 85.0733 251.412 84.7569C251.416 84.6785 251.419 84.5977 251.43 84.5232L251.436 84.4658C251.44 84.4546 251.443 84.4449 251.444 84.4337C251.442 84.4142 251.489 84.3821 251.505 84.3465C251.601 84.2107 251.698 84.0734 251.796 83.9342C252.58 82.8204 253.281 81.8059 253.78 81.066C254.03 80.696 254.229 80.3942 254.363 80.1835C254.497 79.9736 254.566 79.8529 254.554 79.8451Z" fill="black"/>
<path d="M250.112 103.269C250.111 103.282 250.285 103.305 250.601 103.333C250.916 103.362 251.373 103.393 251.939 103.421C253.07 103.478 254.635 103.514 256.364 103.477C258.093 103.438 259.655 103.332 260.782 103.225C261.346 103.171 261.801 103.12 262.115 103.077C262.429 103.035 262.602 103.005 262.601 102.991C262.599 102.978 262.424 102.981 262.108 103C261.752 103.022 261.304 103.051 260.771 103.084C259.643 103.156 258.083 103.238 256.359 103.277C254.635 103.314 253.074 103.301 251.943 103.28C251.41 103.27 250.961 103.262 250.604 103.255C250.288 103.251 250.113 103.255 250.112 103.269Z" fill="black"/>
<path d="M240.114 89.1196C240.108 89.1323 240.207 89.1917 240.391 89.2895C240.575 89.3878 240.849 89.5168 241.195 89.6565C241.885 89.9423 242.871 90.2587 243.984 90.4992C245.099 90.7397 246.124 90.8648 246.867 90.9208C247.611 90.9763 248.072 90.9704 248.073 90.9451C248.075 90.9149 247.617 90.8711 246.881 90.7801C246.145 90.6886 245.131 90.5425 244.027 90.304C242.923 90.0659 241.942 89.7739 241.245 89.5246C240.548 89.2783 240.128 89.0909 240.114 89.1196Z" fill="black"/>
<path d="M246.492 93.3325C246.673 95.8112 248.836 97.6742 251.322 97.4926C253.809 97.3115 255.677 95.1551 255.496 92.6763C255.314 90.1975 253.151 88.3346 250.665 88.5161C248.178 88.6972 246.31 90.8537 246.492 93.3325Z" fill="#263238"/>
<path d="M247.713 93.2433C247.845 95.0498 249.421 96.407 251.233 96.275C253.045 96.1431 254.406 94.5717 254.274 92.7652C254.142 90.9587 252.566 89.6015 250.754 89.7335C248.942 89.8659 247.581 91.4372 247.713 93.2433Z" fill="black"/>
<path d="M249.299 93.8398C249.312 93.832 249.322 93.6378 249.33 93.2989C249.338 92.9596 249.345 92.4763 249.346 91.8858L249.31 91.9505C249.802 91.6638 250.376 91.3303 251.002 90.9662L250.907 90.9677C251.438 91.2651 252.014 91.5879 252.615 91.9242C252.661 92.0011 252.552 91.8201 252.563 91.8386V91.839V91.84V91.842V91.8459V91.8541V91.8702L252.564 91.9023L252.565 91.9666L252.567 92.0941L252.571 92.3473C252.573 92.5147 252.576 92.6807 252.579 92.8438C252.585 93.1695 252.591 93.4859 252.597 93.7911L252.643 93.7088C252.024 94.0856 251.46 94.4288 250.971 94.7272L251.046 94.7262C250.524 94.4463 250.094 94.2229 249.79 94.0691C249.488 93.9157 249.312 93.832 249.299 93.8398C249.287 93.8471 249.438 93.9459 249.727 94.1216C250.015 94.2969 250.44 94.5495 250.974 94.8567L251.01 94.8776L251.048 94.8557C251.544 94.5675 252.115 94.2355 252.74 93.8714L252.787 93.8441L252.787 93.7891C252.784 93.4839 252.78 93.1675 252.777 92.8418C252.775 92.6783 252.773 92.5128 252.771 92.3453L252.767 92.0922L252.765 91.9646L252.764 91.9004L252.764 91.8683V91.8522V91.8439V91.84V91.8381V91.8371V91.8366C252.775 91.8551 252.666 91.6735 252.712 91.7504C252.109 91.4175 251.532 91.0981 250.999 90.8036L250.951 90.7769L250.904 90.8051C250.286 91.1819 249.719 91.527 249.232 91.8235L249.195 91.8463L249.196 91.8882C249.214 92.5021 249.235 92.9957 249.253 93.3316C249.271 93.6675 249.287 93.8471 249.299 93.8398Z" fill="#648EF9"/>
<g opacity="0.2">
<path d="M267.569 82.8495C267.569 82.8495 253.85 76.6263 240.186 81.6788C240.186 81.6788 246.575 86.9021 267.569 82.8495Z" fill="black"/>
</g>
<path d="M240.185 81.6787C240.185 81.6787 231.94 75.0647 230.489 75.5602C229.039 76.0558 228.482 76.8196 229.151 78.6061C229.821 80.3926 240.185 90.2838 240.185 90.2838V81.6787Z" fill="#648EF9"/>
<path d="M240.506 94.3241C240.488 94.3256 240.459 94.1499 240.419 93.8315C240.379 93.5132 240.335 93.0507 240.291 92.4792C240.2 91.3357 240.115 89.7532 240.069 88.0041C240.022 86.2546 240.017 84.6705 240.033 83.5241C240.041 82.9512 240.054 82.4872 240.068 82.1665C240.084 81.8461 240.1 81.6689 240.118 81.6689C240.135 81.6689 240.152 81.8461 240.168 82.1665C240.18 82.5437 240.195 82.9955 240.213 83.5227C240.243 84.7328 240.281 86.2828 240.323 87.9968C240.379 89.7098 240.43 91.2588 240.47 92.468C240.488 92.9952 240.504 93.447 240.518 93.8237C240.527 94.1445 240.523 94.3227 240.506 94.3241Z" fill="#263238"/>
<g opacity="0.2">
<path d="M262.621 85.1094C263.032 89.3985 264.473 94.1083 266.029 98.1277C266.307 96.8966 266.546 95.7132 266.701 94.6306C266.526 93.4015 265.721 91.7439 265.215 90.6102C264.396 88.7774 263.577 86.9451 262.758 85.1128" fill="black"/>
</g>
<path d="M267.568 82.8496C267.568 82.8496 275.111 98.207 272.204 99.8568C268.073 102.202 262.362 83.8359 262.362 83.8359L265.035 83.3062L267.568 82.8496Z" fill="#648EF9"/>
<path d="M268.278 97.4613C268.264 97.4711 268.139 97.3061 267.927 96.9984C267.714 96.6912 267.423 96.2341 267.091 95.6549C266.418 94.5002 265.591 92.846 264.808 90.9651C264.026 89.0831 263.423 87.3389 263.032 86.0631C262.833 85.4263 262.689 84.9059 262.597 84.5443C262.505 84.1826 262.463 83.9805 262.48 83.9757C262.496 83.9708 262.572 84.1636 262.692 84.516C262.83 84.9186 263.001 85.4171 263.203 86.0075C263.636 87.2654 264.264 88.9936 265.043 90.8677C265.823 92.7404 266.619 94.397 267.248 95.5677C267.56 96.1553 267.825 96.6236 268.011 96.9458C268.197 97.2686 268.293 97.4516 268.278 97.4613Z" fill="#263238"/>
<path d="M311.421 53.6879L320.785 31.1649C321.212 30.1373 320.676 29.3039 319.587 29.3039H317.704C316.935 29.3039 316.411 28.8818 316.361 28.2227L316.299 27.3947C316.249 26.7355 315.724 26.3135 314.955 26.3135H306.004C305.306 26.3135 304.518 26.6611 303.931 27.2277L303.205 27.9296C302.618 28.4963 301.831 28.8438 301.134 28.8438H289.733C288.644 28.8438 287.425 29.6772 287.01 30.7049L277.728 53.6884H311.421V53.6879Z" fill="#648EF9"/>
<g opacity="0.3">
<path d="M311.421 53.6879L320.785 31.1649C321.212 30.1373 320.676 29.3039 319.587 29.3039H317.704C316.935 29.3039 316.411 28.8818 316.361 28.2227L316.299 27.3947C316.249 26.7355 315.724 26.3135 314.955 26.3135H306.004C305.306 26.3135 304.518 26.6611 303.931 27.2277L303.205 27.9296C302.618 28.4963 301.831 28.8438 301.134 28.8438H289.733C288.644 28.8438 287.425 29.6772 287.01 30.7049L277.728 53.6884H311.421V53.6879Z" fill="black"/>
</g>
<path d="M312.969 46.0389L316.5 32.4262C316.732 31.53 316.144 30.6309 315.324 30.6309H287.645C287.097 30.6309 286.616 31.0446 286.466 31.6449L281.326 52.1341C281.1 53.0337 281.461 53.5735 282.281 53.5633L310.131 53.5721C310.67 53.5652 311.143 53.1568 311.294 52.5663L312.969 46.0389Z" fill="#799CD9"/>
<path d="M311.057 53.0723L312.561 31.6349C312.614 30.8745 312.01 30.2285 311.246 30.2285H282.566V53.0723H311.057Z" fill="black"/>
<path d="M311.377 53.563L307.965 31.463C307.808 30.7431 307.158 30.2285 306.406 30.2285H277.393C276.247 30.2285 275.475 31.3764 275.929 32.4069L282.193 52.6318L311.377 53.563Z" fill="#17171E"/>
<path d="M311.422 53.678L304.385 32.98C304.092 32.1179 303.308 31.541 302.429 31.541H272.519C271.555 31.541 270.876 32.5248 271.183 33.4746L277.728 53.6883L311.422 53.678Z" fill="#648EF9"/>
<path d="M325.43 155.563C325.43 155.633 252.847 155.69 163.332 155.69C73.7853 155.69 1.21777 155.633 1.21777 155.563C1.21777 155.493 73.7853 155.437 163.332 155.437C252.847 155.437 325.43 155.493 325.43 155.563Z" fill="#263238"/>
</g>
<defs>
<clipPath id="clip0_374_5235">
<rect width="321" height="156" fill="white"/>
</clipPath>
</defs>
</svg>
