<svg width="267" height="179" viewBox="0 0 267 179" fill="none" xmlns="http://www.w3.org/2000/svg">
<path d="M132.237 166.486C202.749 166.486 259.911 159.643 259.911 151.203C259.911 142.762 202.749 135.919 132.237 135.919C61.7247 135.919 4.56323 142.762 4.56323 151.203C4.56323 159.643 61.7247 166.486 132.237 166.486Z" fill="#3D3D3D"/>
<path d="M219.903 75.3588C222.598 70.542 227.753 60.4286 229.97 49.9851C233.282 34.3802 240.662 33.6928 243.359 38.1605C250.764 50.4298 230.714 71.4617 224.342 77.6676L219.903 75.3588Z" fill="#656565"/>
<path d="M221.593 76.2376C226.53 69.939 230.275 63.0308 232.701 57.9335C235.924 51.1656 237.581 46.0437 237.598 45.9916C237.657 45.8079 237.854 45.7066 238.038 45.7661C238.223 45.8245 238.325 46.0219 238.264 46.2062C238.248 46.2577 236.579 51.4157 233.339 58.2243C230.909 63.3301 227.163 70.2429 222.225 76.5662L221.593 76.2376Z" fill="#3D3D3D"/>
<path d="M43.0854 121.35C40.6129 116.415 35.9248 106.078 34.186 95.5438C31.5888 79.8038 24.2485 78.781 21.3513 83.1205C13.394 95.039 32.4633 116.964 38.5462 123.454L43.0854 121.35Z" fill="#656565"/>
<path d="M41.3574 122.152C36.7134 115.634 33.2873 108.563 31.0958 103.36C28.1855 96.4523 26.7632 91.26 26.7489 91.2073C26.6985 91.0213 26.5057 90.9109 26.3191 90.9624C26.1325 91.0122 26.022 91.205 26.073 91.3916C26.0861 91.4437 27.5193 96.6726 30.4451 103.621C32.6395 108.833 36.0661 115.909 40.7106 122.451L41.3574 122.152Z" fill="#3D3D3D"/>
<path d="M49.1241 135.697C43.7858 130.317 32.1249 117.705 24.7783 103.386C14.2358 82.8375 3.66401 84.6742 1.58984 91.9383C-3.7753 110.725 27.8243 131.142 40.927 138.684L49.1241 135.697Z" fill="#656565"/>
<path d="M46.2383 136.749C37.0384 129.849 29.2603 121.687 23.9753 115.528C16.9074 107.292 12.6503 100.764 12.6074 100.698C12.4552 100.464 12.1409 100.397 11.9063 100.55C11.671 100.702 11.6041 101.016 11.7575 101.251C11.7987 101.317 16.0867 107.891 23.1946 116.176C28.4155 122.263 36.0563 130.292 45.1033 137.162L46.2383 136.749Z" fill="#3D3D3D"/>
<path d="M216.112 85.1466C221.69 80.015 233.914 67.9482 241.906 53.9796C253.375 33.9333 263.852 36.2502 265.593 43.6013C270.095 62.6129 237.598 81.5677 224.165 88.5045L216.112 85.1466Z" fill="#656565"/>
<path d="M218.947 86.3285C228.452 79.8558 236.594 72.0571 242.154 66.1453C249.59 58.2407 254.141 51.9129 254.187 51.8488C254.349 51.6216 254.666 51.5695 254.894 51.7332C255.122 51.8951 255.175 52.2122 255.011 52.44C254.967 52.5036 250.383 58.8754 242.905 66.8282C237.412 72.6701 229.413 80.3429 220.062 86.7932L218.947 86.3285Z" fill="#3D3D3D"/>
<path d="M55.6276 53.9336C50.1028 50.6421 37.8518 42.746 28.7859 32.5348C15.7754 17.8806 7.47698 21.6266 7.30929 28.0345C6.87602 44.6067 37.1616 54.6977 49.5236 58.122L55.6276 53.9336Z" fill="#656565"/>
<path d="M53.4792 55.4079C44.4596 51.6854 36.3415 46.6242 30.6953 42.6813C23.145 37.4095 18.2658 32.9458 18.2165 32.9005C18.042 32.7403 17.7695 32.7517 17.6093 32.9274C17.4479 33.102 17.4593 33.3744 17.635 33.5347C17.6831 33.5799 22.5973 38.0745 30.1905 43.379C35.768 47.2755 43.7459 52.2566 52.6338 55.9877L53.4792 55.4079Z" fill="#3D3D3D"/>
<path d="M79.1518 16.3277C80.0693 7.73623 79.355 -0.567891 75.079 1.48053C70.799 3.53009 72.2991 17.7969 78.1181 27.2068L79.3321 30.8812C75.2112 23.9496 66.9884 18.0768 63.6138 20.2717C60.2605 22.4529 66.0886 25.8652 71.9317 28.0939C76.3794 29.7903 78.9028 31.9206 80.0744 33.1271L85.8081 50.4817C79.2508 39.523 66.2626 30.2677 60.9227 33.7406C55.6016 37.2016 64.8495 42.616 74.1209 46.1525C81.127 48.8247 85.1265 52.177 87.0032 54.0989L88.1462 57.5593C88.7775 57.4551 89.4076 57.3475 90.0372 57.2359L83.216 36.5892C83.6745 34.8167 84.5833 32.3899 86.3851 29.5677C89.7505 24.2964 92.3987 18.0842 88.406 18.3297C84.9405 18.5432 82.1537 25.7233 81.978 32.8403L79.6188 25.6998C79.2657 23.3658 78.7557 20.0353 79.1518 16.3277Z" fill="#656565"/>
<path d="M251.579 85.4526C253.898 77.129 257.628 69.676 260.845 73.1575C264.066 76.6425 257.405 89.3474 248.523 95.9442L246.038 98.9107C252.427 93.9902 262.237 91.5681 264.563 94.8545C266.874 98.1197 260.198 99.139 253.945 99.0526C249.185 98.9874 246.054 100.035 244.519 100.724L232.783 114.735C242.923 106.972 258.411 103.165 262.091 108.364C265.759 113.545 255.165 115.162 245.243 115.026C237.746 114.923 232.791 116.561 230.337 117.654L227.997 120.448C227.449 120.118 226.903 119.785 226.359 119.449L240.322 102.78C240.55 100.963 240.602 98.3721 239.969 95.0846C238.788 88.9433 238.62 82.192 242.24 83.8947C245.382 85.3725 245.321 93.0739 242.857 99.7532L247.685 93.9885C248.874 91.9516 250.578 89.0452 251.579 85.4526Z" fill="#656565"/>
<path d="M239.309 21.4118C237.775 21.4118 236.528 20.1641 236.528 18.6302C236.528 17.0963 237.775 15.8486 239.309 15.8486C240.843 15.8486 242.091 17.0963 242.091 18.6302C242.091 20.1641 240.843 21.4118 239.309 21.4118ZM239.309 16.7215C238.257 16.7215 237.4 17.5777 237.4 18.6302C237.4 19.6828 238.257 20.539 239.309 20.539C240.362 20.539 241.218 19.6828 241.218 18.6302C241.219 17.5777 240.362 16.7215 239.309 16.7215Z" fill="#4169E1"/>
<path d="M253.447 24.2419C251.913 24.2419 250.665 22.9942 250.665 21.4603C250.665 19.9264 251.913 18.6787 253.447 18.6787C254.981 18.6787 256.228 19.9264 256.228 21.4603C256.229 22.9942 254.981 24.2419 253.447 24.2419ZM253.447 19.551C252.394 19.551 251.538 20.4072 251.538 21.4597C251.538 22.5123 252.394 23.3685 253.447 23.3685C254.499 23.3685 255.355 22.5123 255.355 21.4597C255.356 20.4072 254.499 19.551 253.447 19.551Z" fill="#4169E1"/>
<path d="M260.146 29.9215C259.905 29.9215 259.71 29.7263 259.71 29.4853V27.5611C259.71 27.3202 259.905 27.125 260.146 27.125C260.387 27.125 260.582 27.3202 260.582 27.5611V29.4853C260.582 29.7263 260.387 29.9215 260.146 29.9215Z" fill="#4169E1"/>
<path d="M260.146 33.2891C259.905 33.2891 259.71 33.094 259.71 32.853V30.9288C259.71 30.6878 259.905 30.4927 260.146 30.4927C260.387 30.4927 260.582 30.6878 260.582 30.9288V32.853C260.582 33.0934 260.387 33.2891 260.146 33.2891Z" fill="#4169E1"/>
<path d="M262.847 30.6433H261.118C260.877 30.6433 260.682 30.4476 260.682 30.2066C260.682 29.9657 260.877 29.7705 261.118 29.7705H262.847C263.088 29.7705 263.283 29.9657 263.283 30.2066C263.283 30.4476 263.088 30.6433 262.847 30.6433Z" fill="#4169E1"/>
<path d="M259.173 30.6433H257.445C257.204 30.6433 257.009 30.4476 257.009 30.2066C257.009 29.9657 257.204 29.7705 257.445 29.7705H259.173C259.414 29.7705 259.61 29.9657 259.61 30.2066C259.61 30.4476 259.414 30.6433 259.173 30.6433Z" fill="#4169E1"/>
<path d="M245.288 26.7838C245.047 26.7838 244.852 26.5886 244.852 26.3477V24.4234C244.852 24.1825 245.048 23.9873 245.288 23.9873C245.529 23.9873 245.725 24.1825 245.725 24.4234V26.3477C245.725 26.588 245.53 26.7838 245.288 26.7838Z" fill="#4169E1"/>
<path d="M245.288 30.151C245.047 30.151 244.852 29.9559 244.852 29.7144V27.7901C244.852 27.5492 245.048 27.354 245.288 27.354C245.529 27.354 245.725 27.5492 245.725 27.7901V29.7144C245.725 29.9559 245.53 30.151 245.288 30.151Z" fill="#4169E1"/>
<path d="M247.99 27.5051H246.261C246.02 27.5051 245.825 27.3099 245.825 27.0689C245.825 26.828 246.02 26.6328 246.261 26.6328H247.99C248.231 26.6328 248.426 26.828 248.426 27.0689C248.426 27.3099 248.23 27.5051 247.99 27.5051Z" fill="#4169E1"/>
<path d="M244.316 27.5051H242.588C242.347 27.5051 242.152 27.3099 242.152 27.0689C242.152 26.828 242.347 26.6328 242.588 26.6328H244.316C244.557 26.6328 244.753 26.828 244.753 27.0689C244.753 27.3099 244.557 27.5051 244.316 27.5051Z" fill="#4169E1"/>
<path d="M12.7573 73.992C12.7573 75.5259 11.5096 76.7736 9.97568 76.7736C8.4418 76.7736 7.19409 75.5259 7.19409 73.992C7.19409 72.4581 8.4418 71.2104 9.97568 71.2104C11.5096 71.2104 12.7573 72.4587 12.7573 73.992ZM8.06634 73.992C8.06634 75.0446 8.92257 75.9008 9.97511 75.9008C11.0276 75.9008 11.8839 75.0446 11.8839 73.992C11.8839 72.9395 11.0276 72.0833 9.97511 72.0833C8.92257 72.0833 8.06634 72.9395 8.06634 73.992Z" fill="#4169E1"/>
<path d="M15.5871 59.8548C15.5871 61.3887 14.3394 62.6364 12.8055 62.6364C11.2716 62.6364 10.0239 61.3887 10.0239 59.8548C10.0239 58.321 11.2716 57.0732 12.8055 57.0732C14.3394 57.0732 15.5871 58.321 15.5871 59.8548ZM10.8967 59.8548C10.8967 60.9074 11.753 61.7636 12.8055 61.7636C13.8581 61.7636 14.7143 60.9074 14.7143 59.8548C14.7143 58.8023 13.8581 57.9461 12.8055 57.9461C11.753 57.9461 10.8967 58.8023 10.8967 59.8548Z" fill="#4169E1"/>
<path d="M21.2669 53.1559C21.2669 53.3968 21.0718 53.592 20.8308 53.592H18.9066C18.6656 53.592 18.4705 53.3968 18.4705 53.1559C18.4705 52.9149 18.6656 52.7197 18.9066 52.7197H20.8308C21.0712 52.7197 21.2669 52.9149 21.2669 53.1559Z" fill="#4169E1"/>
<path d="M24.6341 53.1559C24.6341 53.3968 24.4389 53.592 24.198 53.592H22.2738C22.0328 53.592 21.8376 53.3968 21.8376 53.1559C21.8376 52.9149 22.0328 52.7197 22.2738 52.7197H24.198C24.4389 52.7197 24.6341 52.9149 24.6341 53.1559Z" fill="#4169E1"/>
<path d="M21.988 50.4552V52.1836C21.988 52.4246 21.7928 52.6198 21.5518 52.6198C21.3109 52.6198 21.1157 52.4246 21.1157 52.1836V50.4552C21.1157 50.2142 21.3109 50.019 21.5518 50.019C21.7928 50.0185 21.988 50.2142 21.988 50.4552Z" fill="#4169E1"/>
<path d="M21.988 54.128V55.8565C21.988 56.0975 21.7928 56.2926 21.5518 56.2926C21.3109 56.2926 21.1157 56.0975 21.1157 55.8565V54.128C21.1157 53.8871 21.3109 53.6919 21.5518 53.6919C21.7928 53.6913 21.988 53.8871 21.988 54.128Z" fill="#4169E1"/>
<path d="M18.1287 68.0128C18.1287 68.2537 17.9336 68.4489 17.6926 68.4489H15.7684C15.5274 68.4489 15.3323 68.2537 15.3323 68.0128C15.3323 67.7718 15.5274 67.5767 15.7684 67.5767H17.6926C17.9336 67.5767 18.1287 67.7718 18.1287 68.0128Z" fill="#4169E1"/>
<path d="M21.4966 68.0128C21.4966 68.2537 21.3014 68.4489 21.0599 68.4489H19.1357C18.8947 68.4489 18.699 68.2537 18.699 68.0128C18.699 67.7718 18.8941 67.5767 19.1357 67.5767H21.0599C21.3008 67.5767 21.4966 67.7718 21.4966 68.0128Z" fill="#4169E1"/>
<path d="M18.8505 65.3116V67.0401C18.8505 67.281 18.6554 67.4762 18.4144 67.4762C18.1734 67.4762 17.9783 67.281 17.9783 67.0401V65.3116C17.9783 65.0707 18.1734 64.8755 18.4144 64.8755C18.6554 64.8755 18.8505 65.0707 18.8505 65.3116Z" fill="#4169E1"/>
<path d="M18.8505 68.985V70.7134C18.8505 70.9544 18.6554 71.1496 18.4144 71.1496C18.1734 71.1496 17.9783 70.9544 17.9783 70.7134V68.985C17.9783 68.744 18.1734 68.5488 18.4144 68.5488C18.6554 68.5488 18.8505 68.744 18.8505 68.985Z" fill="#4169E1"/>
<path d="M20.1095 66.9902L20.1035 66.9993H20.1138L20.1095 66.9902Z" fill="#4169E1"/>
<path d="M20.1034 66.999L20.0667 67.0502L20.0781 66.999H20.1034Z" fill="#4169E1"/>
<path d="M230.756 26.3103V133.94C230.756 138.378 227.16 141.974 222.722 141.974H39.2964C34.8585 141.974 31.2625 138.378 31.2625 133.94V26.3103C31.2625 21.8724 34.8585 18.2764 39.2964 18.2764H222.723C227.16 18.2764 230.756 21.8724 230.756 26.3103Z" fill="#3B3E7D"/>
<path d="M230.756 82.3008V133.94C230.756 138.378 227.16 141.974 222.722 141.974H39.2964C34.8585 141.974 31.2625 138.378 31.2625 133.94V82.3008H230.756Z" fill="#18285D"/>
<path d="M221.895 31.7821V128.469C221.895 131.314 219.59 133.621 216.745 133.621H45.2755C44.0736 133.621 42.9684 133.209 42.091 132.519C41.8592 132.335 41.6417 132.132 41.4443 131.912C40.6218 131.002 40.1233 129.792 40.1233 128.469V31.7821C40.1233 28.937 42.4316 26.6299 45.2755 26.6299H216.744C217.696 26.6299 218.586 26.8874 219.35 27.3379C220.069 27.7603 220.677 28.3521 221.117 29.0589C221.611 29.8487 221.895 30.7828 221.895 31.7821Z" fill="black"/>
<path d="M249.391 137.673V138.361C249.391 141.785 248.294 144.951 246.429 147.526C243.586 151.459 238.959 154.017 233.735 154.017H28.2827C23.0583 154.017 18.4315 151.459 15.5887 147.526C13.7245 144.951 12.6262 141.785 12.6262 138.361V137.673H249.391Z" fill="#021147"/>
<path d="M104.473 137.673V137.831C104.473 139.07 105.303 140.075 106.328 140.075H154.662C155.686 140.075 156.516 139.07 156.516 137.831V137.673H104.473Z" fill="white"/>
<path d="M221.894 31.782V37.4866H40.1238V31.782C40.1238 30.6843 40.4655 29.6684 41.0527 28.8345C41.9816 27.5015 43.5269 26.6304 45.276 26.6304H216.744C218.493 26.6304 220.038 27.502 220.965 28.8345C221.553 29.6684 221.894 30.6843 221.894 31.782Z" fill="#0B0B0B"/>
<path d="M178.001 33.7786H81.5627C81.3252 33.7786 81.1306 33.5845 81.1306 33.3464V31.3261C81.1306 31.0886 81.3252 30.8945 81.5622 30.8945H178.001C178.238 30.8945 178.432 31.0891 178.432 31.3267V33.347C178.433 33.584 178.238 33.7786 178.001 33.7786Z" fill="#656565"/>
<path d="M57.8963 32.3363V33.4055C57.8963 33.7122 57.5643 33.904 57.2988 33.7506L56.3727 33.216L55.4472 32.6814C55.1817 32.5281 55.1817 32.1452 55.4472 31.9918L56.3727 31.4572L57.2988 30.9226C57.5643 30.7692 57.8963 30.961 57.8963 31.2678V32.3363Z" fill="#3B3E7D"/>
<path d="M62.7131 32.3363V33.4055C62.7131 33.7122 63.0451 33.904 63.3107 33.7506L64.2367 33.216L65.1628 32.6814C65.4283 32.5281 65.4283 32.1452 65.1628 31.9918L64.2367 31.4572L63.3107 30.9226C63.0451 30.7692 62.7131 30.961 62.7131 31.2678V32.3363Z" fill="#3B3E7D"/>
<path d="M220.965 28.834H41.0527C41.9816 27.501 43.527 26.6299 45.2761 26.6299H216.744C218.493 26.6299 220.038 27.5016 220.965 28.834Z" fill="black"/>
<path d="M149.099 13.2797H102.841C99.7056 13.2797 97.1638 10.738 97.1638 7.6021V6.46085C97.1638 3.32498 99.7056 0.783203 102.841 0.783203H149.099C152.235 0.783203 154.777 3.32498 154.777 6.46085V7.6021C154.777 10.738 152.235 13.2797 149.099 13.2797Z" fill="#4169E1"/>
<path d="M148.614 3.31885C146.567 3.31885 144.901 4.98437 144.901 7.03164C144.901 9.07891 146.567 10.7444 148.614 10.7444C150.661 10.7444 152.327 9.07891 152.327 7.03164C152.327 4.98437 150.661 3.31885 148.614 3.31885ZM148.763 8.4024V7.10147H150.441C150.431 7.56106 150.364 7.99833 150.243 8.4024H148.763ZM149.815 9.8842C150.088 9.53793 150.305 9.14015 150.46 8.70117H151.591C151.113 9.5511 150.311 10.1492 149.368 10.3615C149.527 10.219 149.677 10.0593 149.815 9.8842ZM150.142 8.70117C150.002 9.06632 149.816 9.39885 149.587 9.69017C149.231 10.1446 148.876 10.3758 148.763 10.4422V8.70117H150.142ZM148.763 5.20357V3.62104C148.807 3.62276 148.852 3.62562 148.896 3.62963C149.082 3.78702 149.664 4.32675 150.06 5.20415H148.763V5.20357ZM150.386 5.20357C150.254 4.88363 150.085 4.57743 149.886 4.29126C149.742 4.08407 149.585 3.89005 149.416 3.71262C150.27 3.91924 151.02 4.45609 151.496 5.20357H150.386ZM148.763 6.80328V5.50234H150.182C150.336 5.92129 150.423 6.35857 150.44 6.80328H148.763ZM150.738 6.80328C150.722 6.36143 150.642 5.92416 150.499 5.50234H151.666C151.871 5.90985 151.991 6.34712 152.021 6.80328H150.738ZM152.027 7.10204C152.018 7.55419 151.922 7.99146 151.741 8.40298H150.555C150.669 7.99661 150.731 7.55934 150.741 7.10204H152.027ZM146.709 8.4024H145.488C145.306 7.99089 145.21 7.55362 145.201 7.10147H146.523C146.532 7.55877 146.595 7.99604 146.709 8.4024ZM147.202 5.20357C147.317 4.94716 147.456 4.70049 147.617 4.46869C147.929 4.01882 148.241 3.73437 148.37 3.62563C148.402 3.62334 148.433 3.62162 148.465 3.62048V5.20301L147.202 5.20357ZM148.465 5.50234V6.80328H146.824C146.841 6.36029 146.928 5.92301 147.081 5.50234H148.465ZM145.733 5.20357C146.218 4.44178 146.983 3.9015 147.856 3.70233C147.684 3.88261 147.524 4.08064 147.376 4.29126C147.177 4.57686 147.009 4.88363 146.876 5.20357H145.733ZM148.465 7.10204V8.40298H147.019C146.898 8.00062 146.832 7.56334 146.821 7.10204H148.465ZM145.208 6.80328C145.238 6.34769 145.357 5.91042 145.563 5.50234H146.764C146.621 5.92416 146.541 6.36143 146.524 6.80328H145.208ZM146.803 8.70117C146.959 9.14015 147.176 9.53851 147.448 9.8842C147.589 10.0633 147.742 10.2265 147.906 10.3713C146.955 10.1687 146.118 9.55396 145.637 8.70117H146.803ZM148.465 8.70117V10.4211C148.239 10.2803 147.534 9.77088 147.122 8.70117H148.465Z" fill="white"/>
<path d="M139.235 3.46379C141.181 3.46379 142.765 5.04746 142.765 6.994C142.765 8.94054 141.181 10.5242 139.235 10.5242H103.547C101.601 10.5242 100.017 8.94054 100.017 6.994C100.017 5.04746 101.601 3.46379 103.547 3.46379H139.235ZM139.235 3.09863H103.547C101.399 3.09863 99.6511 4.846 99.6511 6.99458C99.6511 9.14258 101.398 10.8905 103.547 10.8905H139.235C141.383 10.8905 143.13 9.14315 143.13 6.99458C143.13 4.846 141.383 3.09863 139.235 3.09863Z" fill="white"/>
<path d="M202.107 50.0867V115.1C202.107 117.412 200.232 119.287 197.92 119.287H65.9063C63.594 119.287 61.719 117.412 61.719 115.1V50.0867C61.719 47.7744 63.594 45.8994 65.9063 45.8994H197.919C200.232 45.8994 202.107 47.7744 202.107 50.0867Z" fill="#D9E4F5"/>
<path d="M202.107 50.0867V53.1384H61.719V50.0867C61.719 47.7744 63.594 45.8994 65.9063 45.8994H197.919C200.232 45.8994 202.107 47.7744 202.107 50.0867Z" fill="#B4CAE3"/>
<path d="M188.622 49.4482C188.622 50.2323 187.986 50.8676 187.202 50.8676C186.418 50.8676 185.783 50.2323 185.783 49.4482C185.783 48.6641 186.418 48.0288 187.202 48.0288C187.986 48.0288 188.622 48.6647 188.622 49.4482Z" fill="#3B3E7D"/>
<path d="M193.165 49.4482C193.165 50.2323 192.529 50.8676 191.745 50.8676C190.961 50.8676 190.326 50.2323 190.326 49.4482C190.326 48.6641 190.961 48.0288 191.745 48.0288C192.529 48.0288 193.165 48.6647 193.165 49.4482Z" fill="#4169E1"/>
<path d="M197.707 49.4482C197.707 50.2323 197.071 50.8676 196.287 50.8676C195.503 50.8676 194.868 50.2323 194.868 49.4482C194.868 48.6641 195.503 48.0288 196.287 48.0288C197.071 48.0288 197.707 48.6647 197.707 49.4482Z" fill="#4169E1"/>
<path d="M79.6534 74.1477H71.0397C69.5768 74.1477 68.3909 72.9618 68.3909 71.4989V62.8851C68.3909 61.4222 69.5768 60.2363 71.0397 60.2363H79.6534C81.1163 60.2363 82.3022 61.4222 82.3022 62.8851V71.4989C82.3017 72.9618 81.1158 74.1477 79.6534 74.1477Z" fill="#B4CAE3"/>
<path d="M77.8075 72.1604H69.1937C67.7308 72.1604 66.5449 70.9745 66.5449 69.5116V60.8978C66.5449 59.4349 67.7308 58.249 69.1937 58.249H77.8075C79.2704 58.249 80.4563 59.4349 80.4563 60.8978V69.5116C80.4563 70.9745 79.2704 72.1604 77.8075 72.1604Z" fill="#4169E1"/>
<path d="M76.0539 63.9271L72.2518 65.232L76.0539 66.537V68.6701L69.6545 66.3487V64.1154L76.0539 61.7939V63.9271Z" fill="white"/>
<path d="M124.793 74.1477H116.179C114.716 74.1477 113.531 72.9618 113.531 71.4989V62.8851C113.531 61.4222 114.716 60.2363 116.179 60.2363H124.793C126.256 60.2363 127.442 61.4222 127.442 62.8851V71.4989C127.441 72.9618 126.255 74.1477 124.793 74.1477Z" fill="#B4CAE3"/>
<path d="M122.947 72.1604H114.333C112.87 72.1604 111.685 70.9745 111.685 69.5116V60.8978C111.685 59.4349 112.87 58.249 114.333 58.249H122.947C124.41 58.249 125.596 59.4349 125.596 60.8978V69.5116C125.596 70.9745 124.41 72.1604 122.947 72.1604Z" fill="#4169E1"/>
<path d="M115.504 61.7939L121.903 64.1154V66.3487L115.504 68.6701V66.537L119.306 65.232L115.504 63.9271V61.7939Z" fill="white"/>
<path d="M193.781 113.183H185.167C183.704 113.183 182.518 111.997 182.518 110.535V101.921C182.518 100.458 183.704 99.272 185.167 99.272H193.781C195.244 99.272 196.43 100.458 196.43 101.921V110.535C196.429 111.997 195.243 113.183 193.781 113.183Z" fill="#B4CAE3"/>
<path d="M191.935 111.197H183.321C181.858 111.197 180.673 110.011 180.673 108.548V99.934C180.673 98.4711 181.858 97.2852 183.321 97.2852H191.935C193.398 97.2852 194.584 98.4711 194.584 99.934V108.548C194.584 110.011 193.398 111.197 191.935 111.197Z" fill="#4169E1"/>
<path d="M187.5 99.71C184.998 99.71 182.964 101.745 182.964 104.247C182.964 106.748 184.999 108.783 187.5 108.783C190.002 108.783 192.037 106.748 192.037 104.247C192.036 101.745 190.002 99.71 187.5 99.71ZM187.683 105.922V104.332H189.733C189.721 104.894 189.639 105.428 189.491 105.922H187.683ZM188.967 107.732C189.301 107.31 189.566 106.823 189.756 106.287H191.138C190.554 107.326 189.574 108.056 188.421 108.316C188.616 108.142 188.799 107.946 188.967 107.732ZM189.367 106.287C189.196 106.733 188.968 107.14 188.69 107.496C188.255 108.051 187.82 108.333 187.683 108.414V106.287H189.367ZM187.683 102.013V100.079C187.736 100.081 187.791 100.085 187.845 100.089C188.072 100.282 188.784 100.941 189.267 102.013H187.683ZM189.666 102.013C189.503 101.623 189.298 101.248 189.054 100.898C188.878 100.645 188.685 100.408 188.48 100.191C189.524 100.444 190.44 101.1 191.021 102.013H189.666V102.013ZM187.683 103.967V102.378H189.416C189.604 102.89 189.71 103.424 189.731 103.967H187.683ZM190.096 103.967C190.076 103.427 189.978 102.893 189.803 102.378H191.229C191.48 102.876 191.625 103.41 191.662 103.967H190.096ZM191.671 104.332C191.66 104.885 191.542 105.419 191.32 105.922H189.871C190.01 105.425 190.086 104.89 190.098 104.332H191.671ZM185.171 105.922H183.68C183.458 105.419 183.34 104.885 183.329 104.332H184.944C184.956 104.89 185.033 105.425 185.171 105.922ZM185.774 102.013C185.914 101.7 186.085 101.398 186.281 101.115C186.662 100.566 187.044 100.218 187.201 100.085C187.24 100.083 187.278 100.081 187.317 100.079V102.013H185.774ZM187.317 102.378V103.967H185.311C185.333 103.426 185.438 102.892 185.626 102.378H187.317ZM183.979 102.013C184.571 101.082 185.507 100.422 186.574 100.179C186.364 100.399 186.168 100.641 185.988 100.898C185.745 101.247 185.539 101.622 185.377 102.013H183.979ZM187.317 104.332V105.922H185.551C185.403 105.43 185.322 104.896 185.309 104.332H187.317ZM183.337 103.967C183.374 103.411 183.52 102.876 183.771 102.378H185.239C185.065 102.893 184.966 103.427 184.946 103.967H183.337ZM185.286 106.287C185.476 106.824 185.742 107.31 186.075 107.732C186.247 107.951 186.435 108.15 186.634 108.328C185.472 108.08 184.449 107.329 183.862 106.287H185.286ZM187.317 106.287V108.388C187.042 108.216 186.18 107.594 185.676 106.287H187.317Z" fill="white"/>
<path d="M125.84 81.6062H68.1471C67.2622 81.6062 66.5457 80.889 66.5457 80.0047C66.5457 79.1199 67.2628 78.4033 68.1471 78.4033H125.84C126.725 78.4033 127.441 79.1205 127.441 80.0047C127.441 80.8896 126.724 81.6062 125.84 81.6062Z" fill="#B4CAE3"/>
<path d="M125.84 87.5383H68.1471C67.2622 87.5383 66.5457 86.8211 66.5457 85.9369C66.5457 85.052 67.2628 84.3354 68.1471 84.3354H125.84C126.725 84.3354 127.441 85.0526 127.441 85.9369C127.441 86.8211 126.724 87.5383 125.84 87.5383Z" fill="#B4CAE3"/>
<path d="M125.84 93.4699H68.1471C67.2622 93.4699 66.5457 92.7528 66.5457 91.8685C66.5457 90.9842 67.2628 90.2671 68.1471 90.2671H125.84C126.725 90.2671 127.441 90.9842 127.441 91.8685C127.441 92.7528 126.724 93.4699 125.84 93.4699Z" fill="#B4CAE3"/>
<path d="M125.84 99.4011H68.1471C67.2622 99.4011 66.5457 98.6839 66.5457 97.7997C66.5457 96.9154 67.2628 96.1982 68.1471 96.1982H125.84C126.725 96.1982 127.441 96.9154 127.441 97.7997C127.441 98.6839 126.724 99.4011 125.84 99.4011Z" fill="#B4CAE3"/>
<path d="M125.84 105.333H68.1471C67.2622 105.333 66.5457 104.616 66.5457 103.731C66.5457 102.847 67.2628 102.13 68.1471 102.13H125.84C126.725 102.13 127.441 102.847 127.441 103.731C127.441 104.616 126.724 105.333 125.84 105.333Z" fill="#B4CAE3"/>
<path d="M125.84 111.264H68.1471C67.2622 111.264 66.5457 110.547 66.5457 109.662C66.5457 108.778 67.2628 108.061 68.1471 108.061H125.84C126.725 108.061 127.441 108.778 127.441 109.662C127.441 110.547 126.724 111.264 125.84 111.264Z" fill="#B4CAE3"/>
<path d="M175.381 96.1982H136.064C135.182 96.1982 134.426 96.8879 134.409 97.7699C134.393 98.6679 135.116 99.4016 136.011 99.4016H175.38C176.264 99.4016 176.981 98.6845 176.981 97.8002C176.983 96.9148 176.265 96.1982 175.381 96.1982Z" fill="#B4CAE3"/>
<path d="M175.381 102.129H136.064C135.182 102.129 134.426 102.819 134.409 103.701C134.393 104.599 135.116 105.333 136.011 105.333H175.38C176.264 105.333 176.981 104.616 176.981 103.731C176.983 102.847 176.265 102.129 175.381 102.129Z" fill="#B4CAE3"/>
<path d="M175.381 108.061H136.064C135.182 108.061 134.426 108.751 134.409 109.633C134.393 110.531 135.116 111.264 136.011 111.264H175.38C176.264 111.264 176.981 110.547 176.981 109.663C176.983 108.778 176.265 108.061 175.381 108.061Z" fill="#B4CAE3"/>
<path d="M194.584 60.2047V89.9145C194.584 89.9769 194.581 90.0392 194.577 90.0999C194.548 90.4342 194.444 90.7426 194.283 91.0065C193.968 91.5262 193.431 91.8685 192.824 91.8685H136.06C135.373 91.8685 134.779 91.4335 134.49 90.797C134.368 90.5315 134.299 90.231 134.299 89.9145V60.2047C134.299 59.9632 134.338 59.7331 134.41 59.5185C134.515 59.2083 134.689 58.9347 134.91 58.7223C135.218 58.4282 135.62 58.249 136.059 58.249H192.823C193.174 58.249 193.501 58.3623 193.775 58.5592C194.031 58.7412 194.243 58.9976 194.384 59.2998C194.513 59.5711 194.584 59.8785 194.584 60.2047Z" fill="#B4CAE3"/>
<path d="M194.577 90.0992C194.549 90.4335 194.445 90.742 194.284 91.0058L164.189 75.1788L163.18 74.6477L134.41 59.5178C134.515 59.2076 134.689 58.934 134.911 58.7217L164.189 74.1171L165.197 74.6477H165.199L194.577 90.0992Z" fill="#D9E4F5"/>
<path d="M194.384 59.299L165.198 74.6481H165.197L164.189 75.1793L134.49 90.7968C134.368 90.5312 134.299 90.2307 134.299 89.9142V89.8358L163.18 74.6487L164.189 74.1181L193.775 58.5596C194.031 58.741 194.243 58.9968 194.384 59.299Z" fill="#D9E4F5"/>
<path d="M105.094 100.054H96.4799C95.017 100.054 93.8311 98.8685 93.8311 97.4056V88.7919C93.8311 87.329 95.017 86.1431 96.4799 86.1431H105.094C106.557 86.1431 107.742 87.329 107.742 88.7919V97.4056C107.742 98.8685 106.556 100.054 105.094 100.054Z" fill="#B4CAE3"/>
<path d="M103.248 98.0671H94.6339C93.171 98.0671 91.9851 96.8812 91.9851 95.4183V86.8046C91.9851 85.3417 93.171 84.1558 94.6339 84.1558H103.248C104.711 84.1558 105.896 85.3417 105.896 86.8046V95.4183C105.896 96.8812 104.711 98.0671 103.248 98.0671Z" fill="#4169E1"/>
<path d="M99.3382 86.6377H101.261L98.0888 95.6927H96.1663L99.3382 86.6377Z" fill="white"/>
<path d="M50.1814 178.272C62.9943 178.272 73.3813 176.247 73.3813 173.748C73.3813 171.25 62.9943 169.225 50.1814 169.225C37.3684 169.225 26.9814 171.25 26.9814 173.748C26.9814 176.247 37.3684 178.272 50.1814 178.272Z" fill="#3D3D3D"/>
<path d="M40.5784 99.1862L37.2457 101.242C35.8154 100.354 34.1899 99.8353 32.5244 99.7214C32.2257 98.9184 32.0557 98.0129 32.0557 96.9953C32.0557 88.7656 38.5432 73.563 38.5432 73.563L37.9514 90.5478C37.5181 94.8788 38.9129 97.5533 40.5784 99.1862Z" fill="#7ADEFF"/>
<path d="M50.0542 93.3383L37.2451 101.242C34.0469 99.2569 29.8733 99.1149 26.4547 101.226C22.1891 103.859 20.5281 109.109 22.2692 113.622C22.493 114.205 22.7746 114.774 23.114 115.325C26.0873 120.142 32.3979 121.637 37.2148 118.665C38.9255 117.61 40.215 116.135 41.0363 114.453C41.8588 112.773 42.2085 110.887 42.0391 109.013L87.1397 81.1851L87.6657 82.0391L98.7978 81.7134L104.042 71.9858L104.076 71.9195L103.182 70.1463L100.332 71.5818L99.7324 71.884L99.2877 72.05L96.2789 77.6297L89.9425 77.8157L88.2775 75.1183L86.6137 72.4203L86.7093 72.244L89.6225 66.8405L95.9589 66.6545L98.2346 62.4312L96.3275 62.4873L87.1031 62.7568L81.8186 72.5599L82.3446 73.4138L50.0542 93.3383ZM34.4773 105.043L36.3981 108.159L37.4002 109.783L34.7583 114.684L29.1923 114.846L26.2682 110.109L26.3637 109.933L28.9107 105.206L34.4773 105.043Z" fill="#4169E1"/>
<path d="M50.0542 93.3383L37.2451 101.242C34.0469 99.2569 29.8733 99.115 26.4547 101.226C22.1891 103.859 20.5281 109.109 22.2692 113.622C25.266 118.362 31.524 119.817 36.3082 116.865C38.0184 115.81 39.3084 114.334 40.1297 112.653C40.9522 110.973 41.3019 109.087 41.1325 107.213L86.2331 79.3852L86.7591 80.2391L97.8912 79.9134L102.175 71.9653L103.175 70.1092L98.3805 70.25L95.3717 75.8298L89.0353 76.0158L87.3704 73.3183L86.7093 72.2446L85.7071 70.6203L88.7159 65.0405L95.0524 64.8545L96.3275 62.4873L87.1031 62.7569L81.8186 72.56L82.3446 73.4139L50.0542 93.3383ZM33.5707 103.243L36.4942 107.983L36.3986 108.159L33.8523 112.883L28.2862 113.046L26.3643 109.933L25.3621 108.309L28.0046 103.406L33.5707 103.243Z" fill="#4169E1"/>
<path d="M56.1436 58.5541C56.1436 59.6055 56.9992 60.4617 58.0512 60.4617C59.1026 60.4617 59.9588 59.6055 59.9588 58.5541C59.9588 58.4208 59.9456 58.2897 59.9187 58.1632C59.8918 58.0396 59.8546 57.9194 59.806 57.8049C59.806 57.8049 59.806 57.8049 59.8048 57.8038C59.5135 57.1238 58.837 56.6465 58.0517 56.6465C57.9316 56.6465 57.8125 56.6574 57.6986 56.6802H57.6975C57.492 56.718 57.298 56.7896 57.1217 56.8892C56.5385 57.2165 56.1436 57.8404 56.1436 58.5541ZM56.4412 58.5541C56.4412 57.845 56.9025 57.2406 57.5412 57.0282C57.7015 56.9739 57.8726 56.9447 58.0512 56.9447C58.1759 56.9447 58.2979 56.959 58.414 56.987C58.6968 57.0511 58.9532 57.1925 59.1569 57.3865C59.3681 57.5857 59.525 57.8421 59.6039 58.1294C59.6417 58.2656 59.6612 58.4076 59.6612 58.5541C59.6612 59.4418 58.9389 60.1641 58.0512 60.1641C57.1635 60.1641 56.4412 59.4418 56.4412 58.5541Z" fill="#4169E1"/>
<path d="M48.3979 64.3467V68.1385C48.3979 68.1385 49.5283 70.0701 51.0582 70.2012C52.5858 70.3345 53.944 68.5391 53.944 68.5391V64.614L48.3979 64.3467Z" fill="#FB9A83"/>
<path d="M52.4182 65.2637C52.4182 65.2637 52.6637 66.6075 53.9447 67.0992V65.3581L52.4182 65.2637Z" fill="#FF6D6B"/>
<path d="M53.5124 66.0122C47.8021 67.6279 45.9283 63.2157 45.1299 60.4221C45.0417 60.1119 44.9616 59.7668 44.8923 59.3988C44.8895 59.3844 44.8872 59.369 44.8832 59.3524C44.8059 58.9386 44.7384 58.4985 44.6817 58.0446C44.6388 57.7086 44.6027 57.3675 44.5707 57.0235C44.4894 56.1891 44.4362 55.3517 44.4013 54.6082C44.32 52.9101 45.337 51.3482 46.9276 50.7381C49.2198 49.8567 52.7002 49.159 55.9975 51.0288C57.216 51.7191 57.9795 52.9982 58.007 54.3976C58.007 54.3976 58.5828 56.6349 58.3098 57.6382C58.0368 58.6416 57.9761 58.9455 57.8845 60.2807C57.7935 61.616 57.0346 64.8337 56.2453 65.5017C55.4566 66.169 53.5124 66.0122 53.5124 66.0122Z" fill="#FB9A83"/>
<path d="M55.6363 60.0938C55.5596 60.0766 55.5001 60.0102 55.4955 59.9278C55.4285 58.707 54.3416 57.9761 54.3308 57.9692C54.2478 57.9148 54.2249 57.8027 54.2792 57.7197C54.3336 57.6367 54.4452 57.6138 54.5282 57.6682C54.5792 57.7019 55.7776 58.5026 55.8549 59.9083C55.8601 60.0073 55.7839 60.0926 55.6849 60.0983C55.6683 60.0983 55.6517 60.0972 55.6363 60.0938Z" fill="#FF6D6B"/>
<path d="M54.5633 59.2475C54.5306 59.2401 54.4997 59.224 54.4746 59.1983C54.4047 59.1273 54.4053 59.0134 54.4763 58.9436C54.4883 58.9321 54.7699 58.6574 55.2547 58.5584C55.352 58.5384 55.447 58.6013 55.467 58.6986C55.487 58.7959 55.4241 58.8915 55.3268 58.911C54.9525 58.9877 54.7315 59.1971 54.7298 59.1994C54.684 59.2446 54.6211 59.2607 54.5633 59.2475Z" fill="#FF6D6B"/>
<path d="M44.1997 57.296C44.431 60.3226 45.7571 63.5866 45.7571 63.5866C47.2062 66.7832 49.9037 66.1977 51.3615 65.7604C52.4272 65.4405 53.8718 64.258 54.4618 63.7149C54.9146 63.2982 55.1876 62.6818 55.3478 62.1707C55.4652 61.7958 55.1944 61.4232 54.8035 61.386C54.1242 61.3207 53.4167 60.7444 53.2473 59.1441C52.9594 56.4295 54.7709 56.4272 54.7709 56.4272C55.8687 56.3299 56.4519 57.7058 56.4519 57.7058C56.4519 57.7058 57.1278 56.8261 56.9882 55.3798C56.8657 54.1109 58.1449 55.0152 58.1449 55.0152C58.1449 55.0152 59.942 53.4527 59.9827 51.9149C60.0233 50.377 59.127 50.3157 58.3206 49.9214C57.5141 49.527 59.3754 48.0704 58.4854 47.3012C57.5948 46.5325 56.5835 46.4513 55.8549 46.8559C55.1263 47.2606 54.8831 45.2774 53.7704 45.2373C52.6578 45.1967 51.9498 46.4112 51.1703 45.9253C50.3913 45.4399 48.4082 44.7113 47.5176 46.2086C46.627 47.7058 46.3844 48.0905 45.6558 48.1712C44.9272 48.2519 42.9039 49.6484 43.3086 51.9549C43.7144 54.2609 44.0647 55.5286 44.1997 57.296Z" fill="#021147"/>
<path d="M55.2283 56.4706C55.4166 56.5267 55.5825 56.6234 55.7285 56.7402C56.0942 56.6978 56.48 56.7356 56.8612 56.8226C56.9487 56.8432 57.0346 56.8649 57.121 56.8895C57.263 56.9308 57.4037 56.9771 57.5411 57.0281C57.8261 57.1322 58.1031 57.2576 58.3584 57.3863C58.8964 57.6571 59.3446 57.9495 59.6044 58.1292C59.7572 58.2363 59.8459 58.3038 59.8511 58.3078L59.9192 58.1636C59.8923 58.04 59.8551 57.9198 59.8064 57.8053C59.8064 57.8053 59.8064 57.8053 59.8053 57.8042C59.6559 57.7 59.4327 57.5506 59.158 57.3863C58.9393 57.2564 58.6881 57.1179 58.4151 56.9869C58.4053 56.9823 58.3956 56.9771 58.3847 56.9725C58.1684 56.8684 57.9377 56.7699 57.6985 56.6812H57.6974C57.4547 56.5925 57.2017 56.5158 56.947 56.4603C56.3707 56.3321 55.7783 56.3058 55.2283 56.4706Z" fill="#4169E1"/>
<path d="M62.8758 177.3C63.2919 177.356 63.7979 177.383 64.2237 177.285L64.8567 177.08L65.8961 176.766C65.8961 176.766 69.6306 175.3 70.9533 174.014C72.2754 172.729 72.0396 171.313 69.978 170.624C67.9165 169.934 66.0741 170.587 64.9718 170.146C64.9718 170.146 61.6716 170.424 61.8554 172.187C61.813 173.828 61.7151 174.697 61.9343 176.355C61.9996 176.846 62.3853 177.234 62.8758 177.3Z" fill="#4169E1"/>
<path d="M64.7021 170.934C64.6455 170.921 64.5934 170.887 64.5608 170.834C64.4972 170.73 64.5299 170.594 64.6335 170.531C64.6684 170.51 65.4908 170.012 66.2131 170.038C67.1758 170.073 67.5272 170.822 67.5415 170.854C67.5919 170.964 67.5433 171.095 67.4328 171.145C67.3223 171.195 67.1918 171.147 67.1415 171.036C67.1317 171.016 66.8816 170.504 66.1971 170.478C65.6059 170.457 64.871 170.902 64.8635 170.906C64.8132 170.937 64.7554 170.945 64.7021 170.934Z" fill="white"/>
<path d="M65.4429 170.852C65.3862 170.84 65.3347 170.805 65.3015 170.752C65.238 170.649 65.2706 170.513 65.3742 170.449C65.4091 170.428 66.2316 169.93 66.9539 169.957C67.9165 169.992 68.268 170.741 68.2823 170.773C68.3326 170.883 68.284 171.014 68.1735 171.064C68.0631 171.114 67.9326 171.066 67.8822 170.955C67.8725 170.935 67.6218 170.423 66.9378 170.397C66.3466 170.375 65.6117 170.821 65.6043 170.825C65.5539 170.856 65.4961 170.864 65.4429 170.852Z" fill="white"/>
<path d="M66.1667 170.702C66.1101 170.689 66.0586 170.655 66.0254 170.602C65.9618 170.498 65.9945 170.362 66.0981 170.299C66.133 170.278 66.9554 169.78 67.6777 169.806C68.6404 169.841 68.9918 170.59 69.0061 170.622C69.0565 170.732 69.0079 170.863 68.8974 170.913C68.7869 170.963 68.6564 170.915 68.6061 170.804C68.5963 170.784 68.3457 170.272 67.6617 170.246C67.0705 170.225 66.3356 170.67 66.3281 170.674C66.2778 170.705 66.22 170.713 66.1667 170.702Z" fill="white"/>
<path d="M65.7336 167.878L65.5316 171.344C64.2495 171.699 63.2868 171.862 62.56 171.297L62.3528 167.62L65.7336 167.878Z" fill="#FB9A83"/>
<path d="M66.7856 169.313C64.8699 170.496 61.7964 169.805 61.7964 169.805C62.1633 169.74 59.1179 146.954 58.7167 143.523C58.3469 140.356 54.3989 131.161 52.7397 125.945C52.6241 125.583 52.521 125.239 52.4289 124.918C52.299 124.461 52.1748 124.025 52.0575 123.614C51.3237 121.06 50.8418 119.435 50.8418 119.435L61.7964 117.041C62.1221 118.27 62.4295 119.481 62.7208 120.678C62.7843 120.939 62.8467 121.2 62.9085 121.459C62.9469 121.623 62.9852 121.788 63.0241 121.95C69.7423 150.488 66.7856 169.313 66.7856 169.313Z" fill="#3B3E7D"/>
<path d="M62.909 121.459C59.1458 122.836 55.4657 123.458 52.0579 123.613C51.3242 121.059 50.8423 119.435 50.8423 119.435L61.7969 117.04C62.1226 118.269 62.4299 119.481 62.7213 120.677C62.7848 120.939 62.8466 121.2 62.909 121.459Z" fill="#18285D"/>
<path d="M34.475 176.539C34.8591 176.709 35.3376 176.876 35.7737 176.901L36.4393 176.881L37.5245 176.871C37.5245 176.871 41.52 176.507 43.1489 175.642C44.7778 174.778 44.9466 173.352 43.1598 172.114C41.3729 170.876 39.4212 170.988 38.4866 170.257C38.4866 170.257 35.2403 169.601 34.9238 171.345C34.4247 172.909 34.0876 173.716 33.8346 175.369C33.7602 175.858 34.0217 176.338 34.475 176.539Z" fill="#4169E1"/>
<path d="M38.0078 170.937C37.9568 170.909 37.9168 170.861 37.9002 170.801C37.8681 170.684 37.9374 170.563 38.0547 170.531C38.0936 170.52 39.0225 170.272 39.7093 170.5C40.6239 170.802 40.7521 171.619 40.7573 171.654C40.775 171.774 40.6915 171.886 40.5713 171.904C40.4511 171.921 40.3395 171.838 40.3217 171.718C40.3183 171.695 40.221 171.134 39.5708 170.917C39.0094 170.731 38.1789 170.954 38.1703 170.956C38.1136 170.971 38.0558 170.963 38.0078 170.937Z" fill="white"/>
<path d="M38.7414 171.065C38.6905 171.038 38.6504 170.99 38.6338 170.93C38.6018 170.812 38.671 170.692 38.7883 170.66C38.8278 170.649 39.7567 170.4 40.443 170.628C41.3576 170.931 41.4858 171.748 41.4904 171.782C41.5081 171.903 41.4246 172.014 41.3044 172.032C41.1842 172.05 41.072 171.966 41.0548 171.846C41.0514 171.824 40.9541 171.262 40.3039 171.046C39.7424 170.86 38.912 171.082 38.9034 171.084C38.8473 171.1 38.7895 171.091 38.7414 171.065Z" fill="white"/>
<path d="M39.4785 171.122C39.4275 171.095 39.3875 171.047 39.3709 170.987C39.3388 170.869 39.4081 170.749 39.5254 170.717C39.5643 170.706 40.4938 170.457 41.18 170.685C42.0946 170.988 42.2229 171.805 42.228 171.84C42.2457 171.96 42.1622 172.071 42.042 172.089C41.9218 172.107 41.8096 172.023 41.7924 171.903C41.789 171.881 41.6917 171.319 41.0415 171.103C40.4801 170.916 39.6496 171.139 39.6416 171.141C39.5844 171.157 39.5265 171.149 39.4785 171.122Z" fill="white"/>
<path d="M39.8523 168.291L38.6893 171.563C37.3598 171.545 36.3897 171.433 35.8494 170.687L36.6781 167.098L39.8523 168.291Z" fill="#FB9A83"/>
<path d="M50.2799 118.378C50.249 119.65 50.2043 120.898 50.1499 122.129C50.1276 122.627 50.1024 123.136 50.0732 123.653C50.0229 124.542 49.9639 125.456 49.8958 126.385C49.3601 133.806 48.3179 142.184 47.5086 146.386C46.9717 149.173 40.4619 169.962 40.4619 169.962C38.3219 170.554 35.609 169.082 35.5352 169.041C35.9078 169.041 38.6355 144.088 39.4946 142.263C40.0343 141.115 39.5421 138.091 39.1381 125.18C39.1203 124.582 39.1009 123.964 39.0831 123.324C39.0711 122.902 39.0625 122.498 39.0562 122.114C39.0104 119.373 39.0917 117.616 39.0917 117.616L50.2799 118.378Z" fill="#3B3E7D"/>
<path d="M39.0917 117.616L50.2798 118.378C50.2489 119.65 50.2043 120.898 50.1499 122.129C50.1276 122.627 50.1024 123.136 50.0732 123.653C45.7125 123.633 41.8933 122.896 39.0568 122.114C39.0104 119.373 39.0917 117.616 39.0917 117.616Z" fill="#18285D"/>
<path d="M62.9092 117.677C62.9092 117.677 56.2339 120.298 50.2804 120.328C44.3269 120.356 38.6263 119.788 38.6263 119.788C38.6263 119.788 38.1278 110.789 37.8027 100.735C37.7821 100.077 37.7615 99.4142 37.7421 98.7503C37.7198 98.0137 37.7009 97.2725 37.6803 96.5331C37.6637 95.872 37.6476 95.2092 37.6328 94.5493C37.6133 93.7017 37.5973 92.8586 37.5824 92.023C37.5704 91.3557 37.5618 90.6963 37.5526 90.0427C37.4611 82.462 37.1016 75.6323 38.3201 74.0989C40.8253 70.9476 48.3985 67.7803 48.3985 67.7803C50.0801 68.2565 51.9745 68.4156 54.1248 68.1941C54.1248 68.1941 58.3642 71.3969 61.3358 73.5638C63.683 75.2751 61.8309 81.3894 61.9614 89.7834C61.9699 90.4239 61.982 91.0764 61.994 91.7374C61.9986 91.9503 62.0026 92.1661 62.0071 92.3824C62.0192 92.9639 62.034 93.5924 62.0518 94.2563C62.0678 94.8761 62.0856 95.5286 62.1067 96.2045C62.1273 96.916 62.1497 97.6526 62.1748 98.4086C62.1954 99.0474 62.216 99.6999 62.2401 100.358C62.5142 108.476 62.9092 117.677 62.9092 117.677Z" fill="#7ADEFF"/>
<path d="M48.3796 72.0878C52.0723 72.4329 54.5231 70.4709 54.6347 70.3799C54.7251 70.306 54.7389 70.1727 54.6645 70.0823C54.5906 69.9918 54.4573 69.9781 54.3669 70.0519C54.3388 70.0748 51.4845 72.3522 47.418 71.5165C47.3041 71.4931 47.1914 71.5669 47.1679 71.6814C47.1445 71.7959 47.2183 71.908 47.3328 71.9315C47.6916 72.0053 48.0413 72.0563 48.3796 72.0878Z" fill="#4169E1"/>
<path d="M61.9934 91.7371C56.911 92.7147 52.3792 93.046 48.5685 93.046C43.473 93.046 39.6715 92.4531 37.5813 92.0227C37.5693 91.3553 37.5607 90.696 37.5515 90.0424C40.7423 90.724 49.8374 92.1635 61.9602 89.7837C61.97 90.4236 61.9814 91.076 61.9934 91.7371Z" fill="#4169E1"/>
<path d="M62.1056 96.2041C56.9774 97.1994 52.4055 97.5354 48.5685 97.5354C43.5513 97.5354 39.7899 96.9613 37.6791 96.5326C37.6625 95.8716 37.6465 95.2088 37.6316 94.5489C40.8991 95.2397 49.9822 96.642 62.0506 94.2559C62.0672 94.8757 62.085 95.5282 62.1056 96.2041Z" fill="#4169E1"/>
<path d="M62.2389 100.358C57.0575 101.372 52.4398 101.714 48.5685 101.714C43.6475 101.714 39.9335 101.162 37.8021 100.735C37.7815 100.077 37.7609 99.4138 37.7415 98.7499C41.1108 99.4493 50.1779 100.803 62.1736 98.4082C62.1942 99.0469 62.2154 99.6994 62.2389 100.358Z" fill="#4169E1"/>
<path d="M61.8485 74.0986C61.8485 74.0986 72.3149 90.3326 74.0417 89.2674C76.6447 87.6614 78.8705 86.2878 78.8705 86.2878L81.3316 84.7694C81.3316 84.7694 79.8698 94.2823 74.1012 96.1945C70.4811 97.3947 60.6528 85.0338 60.6528 85.0338C60.6528 85.0338 60.6534 76.6622 61.8485 74.0986Z" fill="#7ADEFF"/>
<path d="M159.143 122.543C147.973 107.525 140.918 93.6714 140.918 93.6714L141.272 104.055C141.272 104.055 151.888 121.154 155.204 124.709C156.528 124.71 159.143 124.26 159.143 122.543Z" fill="#4169E1"/>
<path d="M131.465 91.1763C131.465 91.1763 129.621 91.6708 127.83 92.1178C126.183 92.5293 125.267 93.0095 125.267 93.0095C125.267 93.0095 125.104 108.772 125.267 113.556C125.431 118.34 123.88 122.73 124.185 125.523C124.185 125.523 137.857 126.49 140.773 125.333C140.773 125.333 139.643 113.025 140.918 109.568C142.212 106.058 142.891 103.612 142.588 102.181C141.809 98.5074 140.883 97.9579 141.125 94.576C141.366 91.1946 131.465 91.1763 131.465 91.1763Z" fill="#7ADEFF"/>
<path d="M137.385 96.8691C133.676 96.8691 131.419 94.6879 131.316 94.5866C131.233 94.5048 131.232 94.3709 131.314 94.2873C131.396 94.2037 131.53 94.2032 131.613 94.285C131.64 94.3108 134.269 96.8434 138.395 96.3901C138.511 96.3775 138.616 96.461 138.629 96.5772C138.642 96.6934 138.558 96.7982 138.442 96.8108C138.078 96.8508 137.725 96.8691 137.385 96.8691Z" fill="#4169E1"/>
<path d="M128.531 116.503C128.418 116.503 128.324 116.413 128.32 116.299C128.316 116.182 128.407 116.084 128.524 116.08C128.581 116.077 134.227 115.816 138.104 110.694C138.175 110.601 138.308 110.582 138.401 110.653C138.494 110.723 138.513 110.856 138.442 110.949C134.439 116.238 128.597 116.5 128.539 116.503C128.536 116.503 128.534 116.503 128.531 116.503Z" fill="#4169E1"/>
<path d="M128.347 118.508C127.903 118.508 127.645 118.482 127.633 118.48C127.516 118.467 127.433 118.363 127.446 118.247C127.459 118.131 127.563 118.048 127.68 118.06C127.737 118.067 133.36 118.633 137.945 114.131C138.029 114.049 138.162 114.051 138.244 114.134C138.326 114.218 138.325 114.352 138.241 114.433C134.487 118.119 130.051 118.508 128.347 118.508Z" fill="#4169E1"/>
<path d="M182.846 133.401L186.456 134.675L185.238 137.958L181.336 136.824L182.846 133.401Z" fill="#FB9A83"/>
<path d="M185.918 135.132C185.918 135.132 185.124 133.92 185.406 133.291C185.689 132.663 191.47 129.13 192.421 127.544C193.372 125.957 194.507 126.748 195.035 127.295C195.563 127.843 189.815 140.818 189.815 140.818C189.815 140.818 185.724 139.735 184.672 138.858C183.62 137.981 185.717 136.571 185.918 135.132Z" fill="#4169E1"/>
<path d="M189.688 133.39C189.684 133.457 189.653 133.522 189.598 133.569C189.491 133.66 189.331 133.646 189.24 133.539C189.21 133.503 188.495 132.651 188.398 131.82C188.268 130.715 189.061 130.18 189.096 130.158C189.213 130.081 189.371 130.113 189.448 130.231C189.526 130.348 189.493 130.506 189.375 130.583C189.354 130.598 188.813 130.974 188.904 131.761C188.983 132.438 189.622 133.202 189.629 133.21C189.672 133.262 189.692 133.327 189.688 133.39Z" fill="white"/>
<path d="M188.754 133.856C188.75 133.923 188.72 133.988 188.664 134.035C188.557 134.126 188.396 134.112 188.305 134.005C188.275 133.969 187.561 133.118 187.463 132.287C187.333 131.18 188.127 130.646 188.16 130.624C188.278 130.547 188.436 130.579 188.513 130.697C188.59 130.814 188.558 130.972 188.44 131.049C188.419 131.064 187.877 131.441 187.969 132.227C188.048 132.907 188.687 133.668 188.693 133.676C188.739 133.728 188.758 133.792 188.754 133.856Z" fill="white"/>
<path d="M190.587 132.624C190.583 132.691 190.553 132.756 190.497 132.803C190.39 132.894 190.23 132.88 190.139 132.773C190.108 132.737 189.393 131.886 189.297 131.055C189.166 129.948 189.96 129.414 189.994 129.392C190.112 129.315 190.27 129.348 190.347 129.466C190.424 129.583 190.392 129.741 190.274 129.818C190.252 129.833 189.711 130.21 189.803 130.996C189.882 131.676 190.521 132.437 190.528 132.445C190.571 132.496 190.591 132.561 190.587 132.624Z" fill="white"/>
<path d="M134.907 126.915C134.907 126.915 149.496 122.666 156.798 122.374C164.106 122.086 183.779 132.946 183.779 132.946C184.249 134.088 183.942 135.356 183.176 136.499C183.067 136.663 182.95 136.819 182.824 136.966C182.555 137.31 182.244 137.627 181.9 137.925C181.9 137.925 167.376 136.065 157.673 130.919C157.673 130.919 144.049 134.312 136.207 134.095C136.207 134.095 132.972 131.395 134.907 126.915Z" fill="#021147"/>
<path d="M140.538 84.4818C143.573 81.4467 143.573 76.5259 140.538 73.4909C137.503 70.4558 132.582 70.4558 129.547 73.4909C126.512 76.5259 126.512 81.4467 129.547 84.4818C132.582 87.5169 137.503 87.5169 140.538 84.4818Z" fill="#021147"/>
<path d="M132.207 76.1495C134.837 76.1495 136.97 74.0172 136.97 71.387C136.97 68.7567 134.837 66.6245 132.207 66.6245C129.577 66.6245 127.445 68.7567 127.445 71.387C127.445 74.0172 129.577 76.1495 132.207 76.1495Z" fill="#021147"/>
<path d="M140.619 81.1341C140.619 81.1341 141.799 79.9001 142.478 81.0786C143.156 82.257 141.737 85.4112 139.895 84.4319L140.619 81.1341Z" fill="#FF6D6B"/>
<path d="M140.775 84.2879C140.756 84.4814 140.898 84.6531 141.092 84.672C141.285 84.6903 141.457 84.5483 141.476 84.3549C141.494 84.1614 141.352 83.9897 141.159 83.9708C140.965 83.9525 140.793 84.0945 140.775 84.2879Z" fill="white"/>
<path d="M140.41 83.4651C140.481 83.472 140.55 83.4337 140.577 83.3673C140.97 82.3891 142.106 82.0864 142.118 82.083C142.204 82.0606 142.255 81.9759 142.231 81.8935C142.207 81.8111 142.117 81.7619 142.03 81.7842C141.977 81.7979 140.725 82.1282 140.273 83.2545C140.241 83.3341 140.283 83.4239 140.367 83.4548C140.381 83.46 140.395 83.4634 140.41 83.4651Z" fill="#ED495C"/>
<path d="M141.566 83.0641C141.595 83.0669 141.627 83.0618 141.655 83.048C141.735 83.0091 141.766 82.9158 141.724 82.8397C141.717 82.8271 141.55 82.5272 141.16 82.3154C141.082 82.2731 140.983 82.2983 140.939 82.3727C140.895 82.4465 140.923 82.5415 141.001 82.5839C141.302 82.7476 141.434 82.9782 141.436 82.9805C141.463 83.0286 141.512 83.0589 141.566 83.0641Z" fill="#ED495C"/>
<path d="M131.846 87.1782L131.465 91.1772C131.465 91.1772 133.186 92.7889 134.625 93.0516C136.061 93.316 136.725 91.6545 136.725 91.6545L137.08 87.9326L131.846 87.1782Z" fill="#FB9A83"/>
<path d="M131.809 87.5698L131.657 89.1649C132.527 90.3377 134.218 90.8848 136.811 90.7515L137.043 88.3242L131.809 87.5698Z" fill="#FF6D6B"/>
<path d="M141.106 82.7151C141.023 83.0969 140.931 83.4844 140.824 83.869C140.117 86.4256 138.203 89.0773 136.082 89.3503C131.5 89.9398 129.974 86.2396 129.505 83.5725C129.453 83.276 129.634 82.9601 129.603 82.6121C129.532 81.7879 129.293 80.8367 129.305 79.9227C129.314 79.2891 129.337 78.6652 129.364 78.1026C129.443 76.5155 130.496 75.1505 131.981 74.7201C134.121 74.0968 137.313 73.7465 140.113 75.7686C141.146 76.5155 141.72 77.7701 141.621 79.0744C141.544 80.0709 141.395 81.3684 141.106 82.7151Z" fill="#FB9A83"/>
<path d="M135.441 84.2049C135.358 84.1969 135.29 84.1299 135.283 84.0435C135.277 83.9473 135.349 83.8632 135.445 83.8563L136.053 83.8128L135.439 81.5389C135.413 81.4456 135.468 81.3495 135.562 81.3243C135.655 81.2997 135.751 81.354 135.776 81.4473L136.502 84.131L135.471 84.2049C135.461 84.2055 135.451 84.2055 135.441 84.2049Z" fill="#FF6D6B"/>
<path d="M139.798 78.1694C141.474 79.1366 140.962 81.7786 140.848 83.7841C140.843 83.8625 141.282 82.3549 141.327 82.324C141.627 80.9521 141.779 79.6294 141.857 78.6141C141.958 77.2845 141.349 76.0036 140.257 75.2384C137.3 73.1671 133.937 73.5139 131.683 74.1424C130.12 74.5768 129.014 75.9647 128.937 77.5827C128.91 78.1568 128.888 78.7927 128.881 79.4383C129.155 79.6392 129.858 79.7863 129.843 80.2567C129.804 81.501 129.709 83.6101 129.971 83.5437C130.277 83.4664 130.635 80.6367 130.504 79.7324C130.504 79.7324 130.967 79.1183 132.66 78.645C134.832 78.0377 136.963 77.035 136.963 77.035C136.963 77.035 137.805 76.6321 138.159 76.1387C138.161 76.1381 138.521 77.4333 139.798 78.1694Z" fill="#021147"/>
<path d="M138.06 81.5874C138.023 81.9714 138.191 82.3011 138.435 82.3246C138.679 82.348 138.907 82.0556 138.943 81.6721C138.98 81.288 138.812 80.9584 138.568 80.9349C138.324 80.9114 138.096 81.2039 138.06 81.5874Z" fill="#021147"/>
<path d="M132.858 81.1045C132.821 81.4886 132.989 81.8182 133.233 81.8417C133.477 81.8652 133.705 81.5727 133.741 81.1892C133.778 80.8052 133.61 80.4755 133.366 80.4521C133.122 80.428 132.894 80.7205 132.858 81.1045Z" fill="#021147"/>
<path d="M139.525 79.673C139.177 79.57 138.469 79.3869 137.702 79.3411C137.5 79.3291 137.324 79.4653 137.337 79.6278L137.337 79.6318C137.347 79.7617 137.476 79.8608 137.638 79.8642C138.164 79.8745 139.527 80.0136 140.143 80.2631C140.169 80.1727 140.117 80.0691 140.036 79.9752C139.912 79.8333 139.729 79.7337 139.525 79.673Z" fill="#021147"/>
<path d="M132.415 79.0784C132.777 79.0383 133.505 78.9822 134.269 79.0721C134.47 79.0955 134.619 79.261 134.578 79.4189L134.577 79.4229C134.544 79.5494 134.4 79.6238 134.239 79.5986C133.72 79.5168 132.355 79.4138 131.703 79.5511C131.693 79.4578 131.763 79.3651 131.86 79.2867C132.006 79.1682 132.204 79.1018 132.415 79.0784Z" fill="#021147"/>
<path d="M137.274 85.4262C137.087 86.0249 136.551 87.1072 135.104 86.9692C133.655 86.8307 133.347 85.765 133.274 85.0444L137.274 85.4262Z" fill="white"/>
<path d="M135.025 88.0203C135.442 88.0603 135.832 87.8703 135.848 87.8623C135.933 87.8205 135.969 87.7175 135.926 87.6328C135.884 87.5481 135.782 87.5132 135.697 87.5544C135.693 87.5561 135.376 87.7089 135.057 87.6786C134.713 87.6454 134.422 87.4336 134.419 87.4319C134.343 87.3758 134.236 87.3918 134.179 87.468C134.123 87.5441 134.139 87.6511 134.215 87.7078C134.229 87.7186 134.583 87.9785 135.025 88.0203Z" fill="#FF6D6B"/>
<path d="M129.817 80.0916C129.817 80.0916 128.734 78.4879 127.909 79.4913C127.083 80.494 127.803 83.7569 129.647 83.1531L129.817 80.0916Z" fill="#FB9A83"/>
<path d="M128.527 83.1185C128.509 83.3119 128.651 83.4836 128.845 83.5025C129.038 83.5208 129.21 83.3789 129.229 83.1854C129.247 82.992 129.105 82.8203 128.912 82.8014C128.718 82.7831 128.546 82.925 128.527 83.1185Z" fill="white"/>
<path d="M129.354 82.1385C129.289 82.1322 129.233 82.083 129.221 82.0155C129.04 81.0122 128.065 80.5188 128.055 80.5142C127.981 80.4776 127.951 80.3877 127.987 80.3133C128.024 80.2389 128.114 80.2086 128.188 80.2447C128.234 80.267 129.308 80.8067 129.517 81.9623C129.531 82.0441 129.477 82.1219 129.395 82.1368C129.381 82.1391 129.367 82.1397 129.354 82.1385Z" fill="#FF6D6B"/>
<path d="M128.379 81.5486C128.35 81.5458 128.324 81.5355 128.3 81.5171C128.235 81.4656 128.224 81.3712 128.275 81.306C128.284 81.2951 128.489 81.0392 128.879 80.907C128.958 80.8801 129.043 80.9225 129.07 81.0015C129.096 81.0799 129.054 81.1652 128.975 81.1921C128.673 81.2939 128.512 81.4902 128.511 81.4925C128.478 81.5337 128.428 81.5532 128.379 81.5486Z" fill="#FF6D6B"/>
<path d="M135.25 80.7923C135.26 80.6887 135.247 80.5868 135.214 80.4935C135.127 80.2371 134.9 80.0402 134.613 80.0065L132.081 79.7077C131.881 79.6842 131.693 79.7438 131.547 79.8588C131.466 79.9218 131.401 80.0013 131.353 80.0935C131.313 80.1696 131.286 80.2531 131.275 80.3424L131.237 80.6664C131.172 81.2153 131.326 81.7641 131.658 82.1751C131.989 82.5826 132.394 82.8224 132.863 82.8876L132.93 82.8956C133.472 82.9598 134.007 82.8098 134.437 82.4715C134.874 82.1293 135.15 81.6371 135.215 81.0848L135.248 80.8112C135.249 80.8055 135.25 80.798 135.25 80.7923ZM134.918 81.0498C134.862 81.522 134.626 81.9421 134.253 82.2346C133.885 82.5236 133.428 82.6513 132.967 82.5969L132.906 82.5894C132.516 82.5345 132.175 82.3319 131.893 81.9856C131.611 81.6382 131.482 81.1695 131.537 80.7019L131.575 80.3785C131.603 80.1455 131.813 79.9796 132.046 80.007L134.579 80.3058C134.811 80.3333 134.978 80.5439 134.95 80.7768L134.918 81.0498Z" fill="white"/>
<path d="M140.613 81.2476C140.599 81.1457 140.56 81.0496 140.506 80.9643C140.392 80.7903 140.205 80.665 139.983 80.6392L137.449 80.3404C137.156 80.3061 136.881 80.452 136.74 80.693C136.692 80.7731 136.659 80.8641 136.647 80.9614C136.645 80.9666 136.644 80.9706 136.644 80.9751L136.606 81.2985C136.541 81.8474 136.695 82.3969 137.027 82.8072C137.358 83.2147 137.764 83.4545 138.232 83.5198L138.299 83.5278C138.841 83.5919 139.376 83.442 139.806 83.1037C140.242 82.7614 140.52 82.2692 140.584 81.7175L140.616 81.4433C140.626 81.3775 140.625 81.3117 140.613 81.2476ZM140.287 81.6826C140.232 82.1548 139.996 82.5749 139.622 82.8673C139.254 83.1564 138.798 83.284 138.336 83.2296L138.274 83.2222C137.884 83.1672 137.543 82.964 137.261 82.6183C136.98 82.2709 136.85 81.8022 136.905 81.3346L136.943 81.0106C136.971 80.7777 137.182 80.6117 137.414 80.6392L139.948 80.938C140.18 80.9654 140.347 81.1761 140.319 81.409L140.287 81.6826Z" fill="white"/>
<path d="M131.547 79.859C131.307 79.7016 130.673 79.3548 129.733 79.3164L129.811 79.6237C130.591 79.6764 131.132 79.9563 131.354 80.0936C131.428 80.1389 131.466 80.1686 131.468 80.1698L131.655 79.9345C131.647 79.9283 131.611 79.8996 131.547 79.859Z" fill="white"/>
<path d="M135.146 80.8108L135.082 80.5172C135.1 80.5132 135.537 80.4188 135.998 80.4726C136.488 80.5304 136.786 80.7181 136.798 80.7261L136.636 80.9797C136.634 80.9785 136.38 80.8206 135.962 80.7713C135.553 80.7227 135.15 80.8097 135.146 80.8108Z" fill="white"/>
<path d="M141.465 80.7983C140.894 80.8264 140.413 80.9929 140.382 81.0044L140.482 81.2877C140.49 81.2854 140.984 81.1143 141.54 81.0977L141.465 80.7983Z" fill="white"/>
<path d="M151.307 153.579L150.013 157.414L146.626 157.094L147.775 153.012L151.307 153.579Z" fill="#FB9A83"/>
<path d="M149.775 157.283C149.775 157.283 150.636 156.117 151.324 156.166C152.012 156.213 157.327 160.414 159.144 160.757C160.962 161.1 160.613 162.438 160.282 163.123C159.951 163.807 145.789 162.907 145.789 162.907C145.789 162.907 145.389 158.694 145.847 157.403C146.306 156.112 148.355 157.592 149.775 157.283Z" fill="#4169E1"/>
<path d="M152.714 160.216C152.65 160.235 152.578 160.229 152.515 160.194C152.392 160.125 152.349 159.97 152.419 159.847C152.441 159.806 152.994 158.841 153.74 158.463C154.731 157.958 155.508 158.518 155.541 158.542C155.654 158.625 155.678 158.784 155.595 158.898C155.511 159.01 155.352 159.035 155.239 158.951C155.217 158.936 154.677 158.558 153.97 158.917C153.362 159.225 152.867 160.089 152.862 160.098C152.828 160.157 152.775 160.197 152.714 160.216Z" fill="white"/>
<path d="M151.953 159.502C151.889 159.521 151.817 159.515 151.754 159.479C151.632 159.41 151.589 159.255 151.658 159.132C151.681 159.091 152.233 158.126 152.979 157.748C153.972 157.243 154.748 157.802 154.78 157.826C154.894 157.91 154.918 158.069 154.834 158.182C154.751 158.296 154.591 158.32 154.478 158.236C154.457 158.221 153.916 157.843 153.21 158.201C152.6 158.511 152.106 159.374 152.102 159.383C152.068 159.443 152.014 159.483 151.953 159.502Z" fill="white"/>
<path d="M153.744 160.794C153.68 160.814 153.609 160.808 153.545 160.772C153.423 160.703 153.38 160.548 153.449 160.425C153.472 160.385 154.024 159.419 154.77 159.041C155.762 158.535 156.538 159.095 156.571 159.12C156.684 159.203 156.708 159.362 156.624 159.476C156.541 159.588 156.382 159.613 156.268 159.529C156.247 159.514 155.706 159.137 155 159.495C154.39 159.804 153.896 160.667 153.892 160.676C153.858 160.735 153.804 160.776 153.744 160.794Z" fill="white"/>
<path d="M123.984 127.224C123.799 128.791 124.063 130.39 124.803 131.785C125.893 133.841 128.241 135.993 133.298 135.727C144.069 135.161 151.665 135.727 151.665 135.727C151.665 135.727 150.543 139.36 149.336 144.635C148.626 147.735 146.406 155.258 146.406 155.258C147.866 156.117 149.419 155.897 150.978 155.611C150.978 155.611 162.163 136.425 161.187 130.186C160.212 123.946 124.184 125.524 124.184 125.524L123.984 127.224Z" fill="#3B3E7D"/>
<path d="M146.407 122.254C141.335 119.053 133.3 112.953 133.3 112.953C133.3 112.953 128.243 103.165 125.268 93.0098C125.268 93.0098 121.893 96.9023 124.234 105.612C126.515 114.098 130.182 117.145 130.182 117.145C130.182 117.145 139.557 123.86 144.519 125.523C145.3 124.216 145.688 123.597 146.407 122.254Z" fill="#4169E1"/>
<path d="M169.736 126.178L137.948 126.598C137.379 126.605 136.912 126.15 136.904 125.582L136.898 125.082C136.89 124.513 137.345 124.046 137.913 124.039L169.701 123.619C170.27 123.612 170.737 124.067 170.745 124.635L170.752 125.135C170.76 125.704 170.305 126.171 169.736 126.178Z" fill="#4169E1"/>
<path d="M170.766 126.164L143.032 126.53L151.293 111.304L178.976 111.03L170.766 126.164Z" fill="#7ADEFF"/>
<path d="M169.044 126.182L169.041 126.187L141.359 126.461L149.568 111.326L151.29 111.309L143.082 126.438L169.044 126.182Z" fill="#4169E1"/>
<path d="M163.142 118.706C163.155 119.68 162.375 120.48 161.401 120.493C160.427 120.505 159.627 119.726 159.614 118.752C159.602 117.778 160.381 116.978 161.355 116.965C162.329 116.953 163.129 117.732 163.142 118.706Z" fill="#4169E1"/>
<path d="M241.998 179C254.811 179 265.198 176.975 265.198 174.476C265.198 171.978 254.811 169.953 241.998 169.953C229.185 169.953 218.798 171.978 218.798 174.476C218.798 176.975 229.185 179 241.998 179Z" fill="#3D3D3D"/>
<path d="M226.546 126.666V173.551C226.546 174.582 227.381 175.417 228.412 175.417H255.585C256.105 175.417 256.574 175.204 256.912 174.862C257.246 174.526 257.451 174.064 257.451 173.551V126.666C257.451 125.635 256.616 124.8 255.585 124.8H228.412C228.043 124.8 227.701 124.907 227.412 125.091C226.892 125.421 226.546 126.003 226.546 126.666Z" fill="#4169E1"/>
<path d="M235.013 133.842H253.159C253.869 133.842 254.444 133.267 254.444 132.557C254.444 131.848 253.869 131.273 253.159 131.273H235.013C234.304 131.273 233.729 131.848 233.729 132.557C233.729 133.267 234.304 133.842 235.013 133.842Z" fill="#7ADEFF"/>
<path d="M235.013 139.692H253.159C253.869 139.692 254.444 139.118 254.444 138.408C254.444 137.699 253.869 137.124 253.159 137.124H235.013C234.304 137.124 233.729 137.698 233.729 138.408C233.729 139.117 234.304 139.692 235.013 139.692Z" fill="#7ADEFF"/>
<path d="M235.013 145.543H253.159C253.869 145.543 254.444 144.968 254.444 144.258C254.444 143.549 253.869 142.974 253.159 142.974H235.013C234.304 142.974 233.729 143.549 233.729 144.258C233.729 144.968 234.304 145.543 235.013 145.543Z" fill="#7ADEFF"/>
<path d="M235.013 151.393H253.159C253.869 151.393 254.444 150.818 254.444 150.109C254.444 149.399 253.869 148.824 253.159 148.824H235.013C234.304 148.824 233.729 149.399 233.729 150.109C233.729 150.818 234.304 151.393 235.013 151.393Z" fill="#7ADEFF"/>
<path d="M235.013 157.243H253.159C253.869 157.243 254.444 156.668 254.444 155.959C254.444 155.25 253.869 154.675 253.159 154.675H235.013C234.304 154.675 233.729 155.25 233.729 155.959C233.729 156.669 234.304 157.243 235.013 157.243Z" fill="#7ADEFF"/>
<path d="M235.013 163.094H253.159C253.869 163.094 254.444 162.519 254.444 161.809C254.444 161.1 253.869 160.525 253.159 160.525H235.013C234.304 160.525 233.729 161.1 233.729 161.809C233.729 162.519 234.304 163.094 235.013 163.094Z" fill="#7ADEFF"/>
<path d="M235.013 168.944H253.159C253.869 168.944 254.444 168.369 254.444 167.66C254.444 166.951 253.869 166.375 253.159 166.375H235.013C234.304 166.375 233.729 166.951 233.729 167.66C233.729 168.369 234.304 168.944 235.013 168.944Z" fill="#7ADEFF"/>
<path d="M230.061 131.823C230.061 132.127 230.307 132.373 230.611 132.373C230.915 132.373 231.161 132.127 231.161 131.823C231.161 131.519 230.915 131.273 230.611 131.273C230.307 131.273 230.061 131.52 230.061 131.823Z" fill="#021147"/>
<path d="M230.061 133.292C230.061 133.596 230.307 133.842 230.611 133.842C230.915 133.842 231.161 133.596 231.161 133.292C231.161 132.988 230.915 132.742 230.611 132.742C230.307 132.742 230.061 132.988 230.061 133.292Z" fill="#7ADEFF"/>
<path d="M230.061 137.674C230.061 137.977 230.307 138.224 230.611 138.224C230.915 138.224 231.161 137.977 231.161 137.674C231.161 137.37 230.915 137.124 230.611 137.124C230.307 137.124 230.061 137.37 230.061 137.674Z" fill="white"/>
<path d="M230.061 139.142C230.061 139.446 230.307 139.692 230.611 139.692C230.915 139.692 231.161 139.446 231.161 139.142C231.161 138.838 230.915 138.592 230.611 138.592C230.307 138.592 230.061 138.838 230.061 139.142Z" fill="#7ADEFF"/>
<path d="M230.061 149.375C230.061 149.679 230.307 149.925 230.611 149.925C230.915 149.925 231.161 149.679 231.161 149.375C231.161 149.071 230.915 148.825 230.611 148.825C230.307 148.825 230.061 149.071 230.061 149.375Z" fill="white"/>
<path d="M230.061 150.843C230.061 151.147 230.307 151.393 230.611 151.393C230.915 151.393 231.161 151.147 231.161 150.843C231.161 150.539 230.915 150.293 230.611 150.293C230.307 150.293 230.061 150.539 230.061 150.843Z" fill="#7ADEFF"/>
<path d="M230.061 143.524C230.061 143.828 230.307 144.074 230.611 144.074C230.915 144.074 231.161 143.828 231.161 143.524C231.161 143.22 230.915 142.974 230.611 142.974C230.307 142.974 230.061 143.22 230.061 143.524Z" fill="#021147"/>
<path d="M230.061 144.992C230.061 145.296 230.307 145.542 230.611 145.542C230.915 145.542 231.161 145.296 231.161 144.992C231.161 144.688 230.915 144.442 230.611 144.442C230.307 144.442 230.061 144.688 230.061 144.992Z" fill="#7ADEFF"/>
<path d="M230.061 155.225C230.061 155.529 230.307 155.775 230.611 155.775C230.915 155.775 231.161 155.529 231.161 155.225C231.161 154.921 230.915 154.675 230.611 154.675C230.307 154.675 230.061 154.921 230.061 155.225Z" fill="#021147"/>
<path d="M230.061 156.694C230.061 156.997 230.307 157.244 230.611 157.244C230.915 157.244 231.161 156.997 231.161 156.694C231.161 156.39 230.915 156.144 230.611 156.144C230.307 156.144 230.061 156.39 230.061 156.694Z" fill="#7ADEFF"/>
<path d="M230.061 161.075C230.061 161.379 230.307 161.625 230.611 161.625C230.915 161.625 231.161 161.379 231.161 161.075C231.161 160.771 230.915 160.525 230.611 160.525C230.307 160.525 230.061 160.772 230.061 161.075Z" fill="white"/>
<path d="M230.061 162.544C230.061 162.848 230.307 163.094 230.611 163.094C230.915 163.094 231.161 162.848 231.161 162.544C231.161 162.24 230.915 161.994 230.611 161.994C230.307 161.994 230.061 162.24 230.061 162.544Z" fill="#7ADEFF"/>
<path d="M230.061 166.926C230.061 167.229 230.307 167.476 230.611 167.476C230.915 167.476 231.161 167.229 231.161 166.926C231.161 166.622 230.915 166.375 230.611 166.375C230.307 166.375 230.061 166.622 230.061 166.926Z" fill="#021147"/>
<path d="M230.061 168.394C230.061 168.698 230.307 168.944 230.611 168.944C230.915 168.944 231.161 168.698 231.161 168.394C231.161 168.09 230.915 167.844 230.611 167.844C230.307 167.844 230.061 168.091 230.061 168.394Z" fill="#7ADEFF"/>
<path d="M232.44 124.8H251.556C251.556 123.632 250.609 122.685 249.441 122.685H234.556C233.387 122.685 232.44 123.632 232.44 124.8Z" fill="#4169E1"/>
<path d="M230.756 78.0869V79.3575H241.398V122.684H242.669V78.0869H230.756Z" fill="#7ADEFF"/>
<path d="M243.644 78.7221C243.644 79.631 242.907 80.3676 241.998 80.3676C241.089 80.3676 240.353 79.631 240.353 78.7221C240.353 77.8133 241.089 77.0767 241.998 77.0767C242.907 77.0767 243.644 77.8133 243.644 78.7221Z" fill="#4169E1"/>
</svg>
